<?xml version="1.0" encoding="UTF-8" standalone="no"?>
<!-- Created with Inkscape (http://www.inkscape.org/) -->

<svg
   version="1.1"
   id="svg4846"
   width="598"
   height="312.66666"
   viewBox="0 0 598 312.66666"
   sodipodi:docname="vauxfood.svg"
   inkscape:version="1.2.2 (b0a8486541, 2022-12-01)"
   xmlns:inkscape="http://www.inkscape.org/namespaces/inkscape"
   xmlns:sodipodi="http://sodipodi.sourceforge.net/DTD/sodipodi-0.dtd"
   xmlns:xlink="http://www.w3.org/1999/xlink"
   xmlns="http://www.w3.org/2000/svg"
   xmlns:svg="http://www.w3.org/2000/svg">
  <defs
     id="defs4850">
    <filter
       inkscape:collect="always"
       style="color-interpolation-filters:sRGB"
       id="filter5427"
       x="-0.19888587"
       y="-0.26234943"
       width="1.3977717"
       height="1.5246989">
      <feGaussianBlur
         inkscape:collect="always"
         stdDeviation="1.8549403"
         id="feGaussianBlur5429" />
    </filter>
  </defs>
  <sodipodi:namedview
     id="namedview4848"
     pagecolor="#ffffff"
     bordercolor="#666666"
     borderopacity="1.0"
     inkscape:showpageshadow="2"
     inkscape:pageopacity="0.0"
     inkscape:pagecheckerboard="0"
     inkscape:deskcolor="#d1d1d1"
     showgrid="false"
     inkscape:zoom="4.2697792"
     inkscape:cx="189.11985"
     inkscape:cy="219.44928"
     inkscape:window-width="3840"
     inkscape:window-height="2136"
     inkscape:window-x="0"
     inkscape:window-y="0"
     inkscape:window-maximized="1"
     inkscape:current-layer="layer9" />
  <g
     inkscape:groupmode="layer"
     inkscape:label="Image"
     id="g4852"
     style="display:inline">
    <image
       width="598"
       height="312.66666"
       preserveAspectRatio="none"
       style="display:none;opacity:0.4;image-rendering:optimizeQuality"
       xlink:href="vauxfood.png"
       id="image4854" />
  </g>
  <g
     inkscape:groupmode="layer"
     id="layer7"
     inkscape:label="shore"
     style="display:inline">
    <path
       style="fill:none;fill-rule:evenodd;stroke:#000000;stroke-width:1px;stroke-linecap:butt;stroke-linejoin:miter;stroke-opacity:1"
       d="m 26.093628,287.6834 c 1.714618,-0.66243 4.980542,-2.44802 7.528786,-3.54321 7.22978,-1.90143 3.121857,-2.51361 2.054202,-7.02542 -0.473627,-2.42741 -0.776084,-5.07128 0,-7.41954 0.449109,-1.3589 1.280087,-2.80468 2.558545,-3.448 0.907671,-0.45674 2.146414,0.468 3.048331,0 1.002691,-0.52029 0.888107,-2.38865 1.951102,-2.77093 1.157535,-0.41628 2.340532,0.8095 3.559709,0.97315 0.914125,0.1227 1.857453,0.15317 2.766968,0 1.635455,-0.27543 3.18644,-0.95387 4.701009,-1.62963 1.29815,-0.5792 2.34534,-2.38344 3.730855,-2.06561 0.822709,0.18873 1.204109,1.2649 1.459253,2.06949 0.458019,1.44435 -0.292591,3.05899 0,4.54571 0.316813,1.6098 0.626588,3.47891 1.865104,4.55497 1.874646,1.62874 5.542274,3.66205 7.221264,1.83227 1.676476,-1.82704 -4.126816,-5.20814 -2.441374,-7.02691 1.203102,-1.29827 3.493635,0.69123 5.133868,1.35652 0.607924,0.24658 1.059374,0.9692 1.715387,0.96478 1.722038,-0.0116 2.876678,-3.25033 4.468366,-2.593 2.316077,0.95648 -0.1497,5.88615 1.944956,7.26146 1.259197,0.82677 2.998786,-0.34015 4.470266,-0.66243 3.384817,-0.74134 8.117412,-5.83675 9.978408,-2.91386 1.303921,2.04794 -2.87221,4.0057 -4.80795,5.47103 -1.233386,0.93366 -2.678001,1.66006 -4.186598,2.00225 -2.281151,0.51742 -4.761704,-0.61945 -7.017288,0 -1.459153,0.40072 -2.637427,1.48873 -3.90281,2.3185 -1.895196,1.24276 -5.17856,1.7355 -5.514652,3.97676 -0.121525,0.8104 0.856192,1.43351 1.484523,1.95955 2.08617,1.74654 4.866916,2.43484 7.271399,3.70801 2.368183,1.25395 4.749416,2.48972 7.045792,3.87079 2.005127,1.20591 4.257557,2.15396 5.869397,3.85005 1.038268,1.09254 1.262422,2.79427 2.284338,3.90212 1.327406,1.43903 2.914999,2.88626 4.813085,3.36592 0.931001,0.23527 2.222914,0.38577 2.861701,-0.33121 1.00939,-1.13295 0.0812,-3.03694 0,-4.55214 -0.05528,-1.03088 0.0612,-2.12444 -0.331216,-3.07931 -0.875576,-2.13059 -4.459325,-3.10668 -4.305791,-5.40504 0.145619,-2.17987 2.562975,-4.81999 4.729387,-4.53766 1.72253,0.22449 1.04425,3.95874 2.71009,4.45118 1.92148,0.56801 3.58596,-1.79153 5.41511,-2.60941 2.60026,-1.16267 5.32227,-2.04607 7.89723,-3.26375 1.39105,-0.65782 2.65288,-1.57847 4.06967,-2.17885 0.66629,-0.28234 1.40997,-0.36001 2.06739,-0.66243 1.45546,-0.66954 2.58463,-1.97813 4.09183,-2.52127 4.06966,-1.46656 8.61773,-0.91672 12.85142,-1.8049 0.79853,-0.16752 1.65303,-0.24891 2.35639,-0.66243 1.56826,-0.92202 2.15644,-3.19691 3.84544,-3.87281 3.71112,-1.48511 7.9903,0.27601 11.98716,0.33122 2.14384,0.0296 4.28836,0.0341 6.43213,0 3.46635,-0.0552 6.95041,0.0597 10.39509,-0.33122 4.17959,-0.47431 8.25445,-1.6248 12.38218,-2.43462 1.69184,-0.33192 3.40214,-0.58023 5.07593,-0.99364 2.20377,-0.54431 4.49416,-0.93696 6.5237,-1.95373 1.87527,-0.93949 -0.003,-3.48306 0.93542,-4.31309 0.63232,-0.55924 3.90382,0.38413 5.317,0.37846 1.95843,-0.008 5.04472,0.69775 6.9563,1.12367 2.83221,0.63105 5.68109,-1.19579 8.54601,-1.65607 3.35389,-0.53884 6.71835,-1.07676 10.10839,-1.29264 2.57426,-0.16393 5.16082,-0.0982 7.73843,0 12.20007,-0.34908 8.30529,-0.56317 14.64715,4.21106 2.45503,1.66934 5.86868,0.90391 8.80969,1.30929 2.42941,0.33486 4.96013,0.18831 7.29845,0.92754 1.55918,0.49291 2.90662,1.50016 4.33773,2.29133 1.37352,0.75933 2.6635,1.67284 4.07643,2.35603 1.84503,0.89213 3.7765,1.60279 5.71709,2.26169 2.20547,0.74884 4.39027,1.88945 6.71923,1.91714 2.54741,0.0303 5.01051,-2.81249 7.39726,-1.92162 2.4627,0.91922 2.2474,5.09035 4.46679,6.49895 1.13839,0.72251 2.64784,0.54472 3.99172,0.6541 3.16882,0.25791 6.42868,-0.66387 9.5379,0 1.76433,0.37672 3.2706,1.52725 4.94033,2.21047 2.31374,0.94673 4.59286,2.05484 7.02937,2.61438 3.16389,0.72658 6.76178,2.31956 9.69446,0.92762 1.5565,-0.73876 1.89399,-2.87897 2.87185,-4.2975 1.57836,-2.28965 2.84702,-4.85396 4.83374,-6.79989 1.9318,-1.89214 4.80384,-2.64199 6.70799,-4.56196 1.65101,-1.66472 3.53544,-3.53381 3.90722,-5.84874 0.60231,-3.75034 -1.03678,-9.23376 4.94331,-8.80654 3.901,0.27869 7.31168,-2.8321 11.10257,-3.79369 3.84959,-0.97648 7.79004,-1.65491 11.74761,-1.98729 0.81729,-0.0686 1.68231,0.25903 2.46049,0 3.05276,-1.01617 4.81932,-4.40688 7.7267,-5.78497 1.62504,-0.77026 3.4662,-0.98292 5.23709,-1.29599 1.93699,-0.34244 3.94074,-0.23445 5.86709,-0.63239 2.89227,-0.59748 5.69358,-1.596 8.46417,-2.61877 2.98198,-1.10081 5.83223,-2.53016 8.75625,-3.7768 0.93585,-0.399 2.0128,-0.55637 2.81257,-1.18517 3.33535,-2.62237 4.94627,-6.89843 7.57088,-10.23202 2.64995,-3.36576 4.90449,-7.1775 8.24859,-9.85473 2.4092,-1.92877 5.3242,-3.19977 8.22796,-4.24502 2.43743,-0.87739 5.00362,-1.58255 7.59312,-1.65607 7.00648,-0.19893 13.82508,2.33188 20.76609,3.30798 3.3378,0.46939 5.24626,4.75774 8.60778,5.00554 3.10687,0.22902 8.6465,-1.26303 10.77248,-3.54016 1.8894,-2.02374 -0.0743,-5.59242 -0.78243,-8.26897 -0.38908,-1.47067 -3.88905,-3.81747 -4.27462,-5.28906 -0.89486,-3.41534 1.06852,-5.91251 1.45396,-9.42203 0.35046,-3.19106 2.42988,-6.00432 2.92287,-9.17649 0.23022,-1.48138 -0.64064,-3.1421 0,-4.49748 1.19278,-2.52356 4.3444,-3.50676 6.47034,-5.31548 1.88224,-1.60138 4.64491,-2.60633 5.56312,-4.9007 0.33796,-0.84448 -0.52348,-1.85483 -0.23781,-2.71841 0.82913,-2.50647 3.21103,-4.25615 5.25916,-5.92198 2.32706,-1.8927 5.01676,-3.37253 7.80465,-4.47941 2.60201,-1.03308 5.4078,-1.48766 8.16821,-1.95439 2.17785,-0.36823 4.75375,0.59582 6.92021,0.16561 2.97855,-0.59148 5.87728,-1.75585 8.39758,-3.44988 2.69435,-1.81102 3.18834,-6.17843 6.11745,-7.57832 1.50322,-0.71842 3.34051,0.16674 4.99822,0 2.70503,-0.27209 5.47892,-0.58877 7.99265,-1.62433 4.7537,-1.95834 6.68667,-7.28541 11.20583,-9.73692 2.60067,-1.41079 7.86164,-0.0711 9.81636,-2.29207 2.0929,-2.37803 1.29066,-6.27052 2.67802,-9.11841 1.06087,-2.17768 3.78865,-3.52822 4.22816,-5.91036 0.63169,-3.42377 -1.91846,-6.69929 -2.64551,-10.10409 -0.70321,-3.29314 -0.87684,-6.689491 -1.65608,-9.965468 -0.68533,-2.881177 -1.42002,-5.785609 -2.64575,-8.481614 -1.46657,-3.225721 -4.16126,-5.803641 -5.56588,-9.056813 -0.98751,-2.287107 -1.49862,-4.764636 -1.95114,-7.214381 -0.39705,-2.149422 -1.75054,-4.628113 -0.66243,-6.523812 1.44842,-2.523423 3.06327,-2.499326 5.83653,-3.379437 2.24799,-0.713411 4.8745,-0.199807 6.95187,-1.316459 3.29991,-1.773803 2.42662,-4.585874 3.83625,-8.057003 1.06889,-2.63209 1.60231,-6.1767 0,-8.522552 -2.49986,-3.659902 -1.87805,-4.549488 -6.27888,-5.075694 -3.2366,-0.387 -6.50747,0.60856 -9.69094,1.309181 -3.22085,0.708847 -6.40535,1.658498 -9.4549,2.914119 -2.38593,0.98238 -4.35253,2.973512 -6.85815,3.589598 -1.79888,0.442311 -3.74462,-0.381448 -5.55739,0 -1.86392,0.392213 -3.32621,2.373105 -5.22965,2.302845 -1.64539,-0.06074 -2.75818,-1.944241 -4.36159,-2.318502 -3.58853,-0.837619 -7.44387,-0.427055 -11.05,0.331214 -4.00171,0.841449 -7.38406,3.696494 -11.37176,4.602012 -1.71433,0.389286 -3.57154,-0.149286 -5.26377,0.32699 -2.95413,0.831439 -5.2452,3.280619 -8.13781,4.305791 -3.2232,1.142335 -6.82151,0.901017 -10.06542,1.983144 -2.88384,0.962012 -5.39942,2.814589 -8.21454,3.962244 -2.45085,0.999151 -4.93938,1.968215 -7.52495,2.53373 -3.06195,0.669708 -6.2546,0.503338 -9.35034,0.993644 -1.05471,0.167046 -2.06741,0.707212 -3.13433,0.662429 -1.53183,-0.0643 -2.89316,-1.067648 -4.40461,-1.324858 -2.30833,-0.392817 -4.69423,-0.02345 -7.01745,-0.315558 -4.30037,-0.540707 -8.50494,-1.682395 -12.72985,-2.649717 -3.10664,-0.711287 -7.05269,-0.03479 -9.27571,-2.318503 -1.06366,-1.092697 -0.326,-3.093422 -0.98943,-4.466456 -0.77452,-1.60295 -2.06952,-2.926877 -3.36738,-4.145439 -0.82685,-0.776335 -2.07884,-1.076186 -2.77085,-1.974795 -1.60296,-2.081518 -0.44502,-6.17554 -2.78298,-7.373934 -1.11658,-0.572335 -3.16626,-0.186709 -3.63511,0.977118 -0.6335,1.572552 2.71253,2.663299 2.62489,4.356391 -0.0979,1.89093 -1.95216,3.338576 -3.41832,4.536725 -1.33818,1.093558 -2.95869,2.069511 -4.67914,2.232697 -2.44333,0.231752 -4.67886,-2.090084 -7.12281,-1.864902 -1.80419,0.166236 -3.20359,1.728729 -4.91817,2.314369 -3.33576,1.139379 -6.81179,2.596003 -10.32361,2.291767 -1.36787,-0.118501 -2.69543,-0.765863 -3.80767,-1.570874 -1.35775,-0.982706 -2.141,-2.581116 -3.27398,-3.816246 -0.8769,-0.955967 -2.4035,-1.522045 -2.72452,-2.778937 -0.46309,-1.813135 0.0642,-4.234768 1.52653,-5.402494 3.24499,-2.591296 8.3509,0.06688 12.44101,-0.651271 2.50758,-0.440284 5.69035,-0.256303 7.30718,-2.222943 1.31384,-1.59809 -0.91072,-4.787644 0.62394,-6.175049 0.56035,-0.506586 1.51079,0 2.26619,0 2.99902,0 6.00347,-0.180533 8.99705,0 1.79076,0.107995 3.62067,1.148776 5.34302,0.646793 2.83885,-0.827392 4.60245,-2.643542 4.83415,-5.591418 0.18222,-2.318365 -0.5694,-4.144203 -2.61228,-5.255348 -3.77869,-2.055265 -8.46697,-1.624912 -12.75605,-1.951021 -4.43372,-0.337106 -8.92382,0.522307 -13.33956,0 -2.77712,-0.328487 -5.45391,-1.24416 -8.15794,-1.957278 -3.43685,-0.906379 -6.69923,-2.7347 -10.24711,-2.949193 -3.47006,-0.209788 -7.82698,-0.790366 -10.29685,1.656073 -0.92691,0.918116 -0.21479,2.631228 -0.6583,3.858174 -1.12046,3.099691 -3.00406,5.900058 -4.95359,8.557657 -0.45429,0.619282 -0.965,1.208703 -1.55548,1.69984 -2.5182,2.094528 -5.26628,4.060443 -8.33632,5.202056 -2.69652,1.002721 -5.72464,1.969388 -8.52846,1.32498 -2.81442,-0.646843 -4.3956,-3.979359 -7.12099,-4.934137 -3.06752,-1.074637 -6.50137,-0.274192 -9.72842,-0.662429 -1.75938,-0.211666 -5.6021,-0.226476 -7.23822,-0.907141 -1.68281,-0.700087 -2.85534,-2.298793 -4.45968,-3.163703 -3.18519,-1.717154 -4.61796,-3.00974 -8.11369,-3.944555 -2.82822,-0.756311 -4.2487,-1.692791 -6.68322,-3.318815 -2.17043,-1.44964 -2.22566,-4.835244 -4.05128,-6.700547 -1.6945,-1.731333 -5.79297,-1.281342 -8.13701,-1.893157 -1.93087,-0.503974 -2.00762,2.0095 -3.97772,2.327222 -2.00148,0.3228 -6.05106,0.697376 -7.86952,1.593657 -2.96211,1.459959 -5.53318,2.204813 -7.87843,1.951931 -2.04531,-0.22054 -4.58999,0.01973 -6.13584,-1.337571 -2.70417,-2.374334 -2.81037,2.756411 -4.5916,3.474318 -0.97583,0.393301 -2.08824,0.275935 -3.1389,0.331214 -1.17211,0.06167 -2.35344,0.11842 -3.52118,0 -0.79654,-1.812058 -0.57443,-1.649279 -5.90097,-5.569456 0.61704,0 1.23496,0.03292 1.85111,0 3.90245,-0.208481 8.62457,9.076609 11.65183,-1.29312 0.6247,-2.139876 2.58612,-0.559252 4.77712,-0.97013 2.5989,-0.487371 7.01132,0.85819 9.59437,0.292838 1.63593,-0.358056 3.3374,-2.5829506 4.85562,-3.2897034 4.97409,-0.6210297 6.50386,-2.7368924 8.48793,-3.1878896 6.62931,-1.506896 2.65695,-0.1150836 15.38055,3.8023774 1.53018,1.5826006 0.78885,6.0106006 2.95811,6.3852326 2.63887,0.455734 4.53417,-0.04122 6.85414,1.202171 2.61524,1.401639 5.5781,4.631121 7.11164,6.651795 2.52886,3.332155 9.65632,3.018994 9.25517,-0.394388 -0.0844,-0.718449 5.06289,-0.227455 5.69661,0.1214 1.95546,1.076461 -0.41293,1.17208 1.45842,2.388899 1.74802,1.136627 3.15356,2.937792 5.14386,3.559244 2.18357,0.681797 4.59701,0.316076 6.8626,0 2.79661,-0.39016 5.76073,-0.809866 8.14763,-2.318503 2.20704,-1.394959 3.89008,-3.608783 5.16908,-5.884984 1.2324,-2.193272 0.6769,-5.242415 2.25308,-7.203262 1.33313,-1.658477 3.78529,-1.967735 5.54041,-3.170778 1.84019,-1.2613514 4.19639,-2.2242316 5.19593,-4.2187825 C 378.371,4.8982144 375.92978,1.6130316 377.60915,0 c 0.15035,-0.14440869 0.6254,0 0.6254,0 h -2.64972"
       id="path4975"
       sodipodi:nodetypes="cccsssssssssssssssssssssssssssssssssssssssssssssssssssssssccsssssssssssssssssssssssssssssssssssssssssssssssssssssssssssssssssssssssssssssssssssssssssssssssssssssssssssssssssssssssssssssssssssccsssscscsssssssssssssssc" />
    <path
       style="fill:none;fill-rule:evenodd;stroke:#000000;stroke-width:1px;stroke-linecap:butt;stroke-linejoin:miter;stroke-opacity:1"
       d="m 384.42185,5.617626 c -0.22439,0.477133 8.37975,4.0982671 12.08304,1.7713684 18.57323,-1.025552 -0.49557,-17.9741174 -2.62797,-16.0427461 -12.63966,5.5485444 -13.70339,6.6645324 -9.45507,14.2713777 z"
       id="path4977"
       sodipodi:nodetypes="cccc" />
    <path
       style="fill:none;fill-rule:evenodd;stroke:#000000;stroke-width:1px;stroke-linecap:butt;stroke-linejoin:miter;stroke-opacity:1"
       d="m 60.595957,284.75262 c 0.575016,-1.49678 -2.721084,-2.086 -2.721084,-2.086 -0.743609,-2.31689 -5.000132,-0.34224 -2.984243,-5.77539 l 1.40999,-3.80015 0.256834,-5.29613 -2.372795,-1.93533 -5.334699,0.91895 0.676661,7.23656 c -0.744596,1.15425 -0.452698,3.82967 -1.034383,4.76315 -0.950386,1.52517 -2.573155,0.29361 -3.136055,1.26651 -3.8427,6.64167 2.014089,4.2354 13.100701,6.5732 z"
       id="path4979"
       sodipodi:nodetypes="ccscccccsscc" />
    <path
       style="fill:none;fill-rule:evenodd;stroke:#000000;stroke-width:1px;stroke-linecap:butt;stroke-linejoin:miter;stroke-opacity:1"
       d="m 433.16277,29.372693 c 0,0 -1.79919,3.80198 -1.91629,4.592558 -0.1171,0.790578 -1.52087,3.183841 -1.05392,4.53638 0.46695,1.352538 -0.53731,3.178459 1.98782,3.808751 2.52513,0.630292 2.55955,-0.148876 4.13531,1.011531 1.57576,1.160407 1.93113,1.945965 2.15981,2.791392 0.22869,0.845427 0.22726,0.954617 0.34436,1.709541 0.1171,0.754923 -0.1171,1.602434 0.1171,2.742707 0.23421,1.140273 -0.68065,3.228991 1.80013,3.228991 2.48079,0 2.03482,-1.68806 3.01979,-1.27836 0.98496,0.4097 0.13225,0.377208 2.95605,1.102478 2.8238,0.725269 2.5412,0.559716 4.05726,0.848554 1.51607,0.288838 0.84811,1.225655 1.86737,0.288838 1.01927,-0.936816 4.63651,0.222447 0.31666,-2.107837 -4.31985,-2.330284 -4.43696,-2.908218 -4.43696,-2.908218 0,0 -0.50897,-1.383476 0.23421,-1.555519 0.74318,-0.172044 1.16407,-0.172044 3.17576,0.06216 2.01169,0.234204 2.37795,-0.09263 3.64538,1.517302 1.26742,1.609932 -0.36195,1.478128 2.28846,2.070121 2.65041,0.591993 3.03262,0.144169 4.78915,1.549394 1.75653,1.405225 -0.39433,0.778825 2.63931,1.949845 3.03365,1.171021 2.8409,1.632868 4.30839,1.053919 1.4675,-0.578949 3.5062,-2.93913 4.96924,-3.23859 1.46303,-0.299459 4.59628,-1.030268 5.24875,-1.696622 0.65247,-0.666354 2.69961,-0.72721 0.76957,-2.774191 -1.93004,-2.046981 -4.77206,-2.831788 -5.94965,-4.970205 -1.1776,-2.138418 -3.78978,-6.224125 -5.19106,-7.281432 -1.40128,-1.057306 -4.98996,-4.435191 -6.73548,-4.318088 -1.74553,0.117102 -4.57633,0.936816 -5.8441,0.936816 -1.26777,0 -2.07473,0.247802 -5.06344,-0.358596 -2.9887,-0.606399 2.32686,3.688954 -5.23497,-1.667433 -7.56183,-5.356387 -5.41362,-2.579555 -6.50385,-2.579555 -1.09023,0 -3.64526,0.686467 -3.64526,0.686467 z"
       id="path4981"
       sodipodi:nodetypes="cssssssssssssscssssssssssssssssscc" />
    <path
       style="fill:none;fill-rule:evenodd;stroke:#000000;stroke-width:1px;stroke-linecap:butt;stroke-linejoin:miter;stroke-opacity:1"
       d="m 248.39154,14.515039 c -3.05092,0.599219 -9.05246,-1.233517 -10.53773,-0.530904 -1.48528,0.702612 -10.10812,7.16594 -10.10812,7.16594 l -6.99539,4.858764 c 0,0 -3.63351,2.079363 -4.74037,2.079363 -1.10687,0 -2.81534,-1.873634 -3.91732,-1.873634 -1.10198,0 -8.1281,2.553546 -8.1281,2.553546 0,0 0.1368,0.468408 -2.35379,0 -2.4906,-0.468408 -6.23786,-1.171021 -6.23786,-1.171021 0,0 -3.44391,1.02227 -3.44391,2.054761 0,1.032491 1.83161,2.984231 0.9199,4.593369 -0.91172,1.609139 -5.12739,4.653793 -5.12739,4.653793 0,0 3.97855,1.138186 5.14665,6.099928 1.16811,4.961743 1.16811,5.383265 1.16811,5.383265 0,0 -4.29081,2.706828 -5.28838,2.472623 -0.99757,-0.234204 -5.90204,-1.244152 -8.82188,-2.562694 -2.91983,-1.318542 -6.70775,-3.446649 -6.70775,-3.446649 0,0 -6.14835,-3.995536 -8.70246,-4.631778 -2.55412,-0.636243 -2.83232,-0.873434 -5.81785,-2.244681 -2.98554,-1.371246 -8.36926,-6.953965 -8.36926,-6.953965 l -4.16335,3.709014 c 0,0 -4.42209,2.099932 -5.7547,2.513935 -1.33261,0.414003 -8.1034,1.197466 -9.67728,2.033762 -1.57387,0.836297 -6.22179,4.547398 -6.22179,4.547398 0,0 -5.08529,3.494007 -6.48767,5.364795 -1.40238,1.870789 -6.31476,7.71703 -6.31476,7.71703 0,0 -5.12974,4.89553 -6.28019,5.577572 -1.15045,0.682043 -9.569989,6.513617 -9.569989,6.513617 l -4.847214,2.81045 -0.231303,12.185477 4.184484,9.53264 c 0,0 5.222602,12.474115 4.991361,13.838005 -0.231245,1.36388 -0.699653,6.41699 -0.699653,6.41699 l -4.979897,5.58005 c 0,0 -15.224227,-4.01152 -15.427526,-3.03065 -0.203299,0.98088 -2.545341,8.5331 -2.545341,9.64643 0,1.11333 -1.171021,6.77951 -0.702612,8.60786 0.08849,4.6729 4.559935,9.95423 5.18787,13.56637 0.234204,1.55092 3.493393,6.8983 5.835434,8.53773 2.342042,1.63943 6.557716,3.98147 6.557716,3.98147"
       id="path5894"
       sodipodi:nodetypes="csccsscscsscscsscssccsscscsccccsccssccsc" />
    <path
       style="fill:none;fill-rule:evenodd;stroke:#000000;stroke-width:1px;stroke-linecap:butt;stroke-linejoin:miter;stroke-opacity:1;stroke-dasharray:8,4;stroke-dashoffset:0"
       d="m 62.214036,263.65057 c 0,0 -4.56265,-15.14379 -3.391629,-16.72032 1.17102,-1.57653 5.802628,-7.61558 6.036832,-9.14037 0.234204,-1.52478 -0.234204,-11.19328 0.702612,-13.92602 0.936817,-2.73275 2.653623,-9.689 3.356235,-11.17888 0.702613,-1.48988 1.198653,-15.66603 1.667061,-17.4754 0.468408,-1.80936 5.415542,-11.27839 5.415542,-11.27839 0,0 10.985438,-5.17047 12.532609,-6.32397 1.547171,-1.15349 9.274407,-9.03353 9.274407,-9.03353 l -5.300084,-6.72973"
       id="path5896" />
  </g>
  <g
     inkscape:groupmode="layer"
     id="layer8"
     inkscape:label="areas"
     style="display:inline">
    <path
       style="font-variation-settings:normal;display:inline;opacity:0.26;vector-effect:none;fill:#00ffff;fill-opacity:1;fill-rule:evenodd;stroke:none;stroke-width:1px;stroke-linecap:butt;stroke-linejoin:miter;stroke-miterlimit:4;stroke-dasharray:none;stroke-dashoffset:0;stroke-opacity:1;-inkscape-stroke:none;filter:url(#filter5427);stop-color:#000000;stop-opacity:1"
       d="m 384.42185,5.617626 c -0.22439,0.477133 8.37975,4.0982671 12.08304,1.7713684 18.57323,-1.025552 -0.49557,-17.9741174 -2.62797,-16.0427461 -12.63966,5.5485444 -13.70339,6.6645324 -9.45507,14.2713777 z"
       id="path4977-7"
       sodipodi:nodetypes="cccc" />
    <path
       style="font-variation-settings:normal;display:inline;opacity:0.26;vector-effect:none;fill:#00ffff;fill-opacity:1;fill-rule:evenodd;stroke:none;stroke-width:1px;stroke-linecap:butt;stroke-linejoin:miter;stroke-miterlimit:4;stroke-dasharray:none;stroke-dashoffset:0;stroke-opacity:1;-inkscape-stroke:none;filter:url(#filter5427);stop-color:#000000;stop-opacity:1"
       d="m 433.16277,29.372693 c 0,0 -1.79919,3.80198 -1.91629,4.592558 -0.1171,0.790578 -1.52087,3.183841 -1.05392,4.53638 0.46695,1.352538 -0.53731,3.178459 1.98782,3.808751 2.52513,0.630292 2.55955,-0.148876 4.13531,1.011531 1.57576,1.160407 1.93113,1.945965 2.15981,2.791392 0.22869,0.845427 0.22726,0.954617 0.34436,1.709541 0.1171,0.754923 -0.1171,1.602434 0.1171,2.742707 0.23421,1.140273 -0.68065,3.228991 1.80013,3.228991 2.48079,0 2.03482,-1.68806 3.01979,-1.27836 0.98496,0.4097 0.13225,0.377208 2.95605,1.102478 2.8238,0.725269 2.5412,0.559716 4.05726,0.848554 1.51607,0.288838 0.84811,1.225655 1.86737,0.288838 1.01927,-0.936816 4.63651,0.222447 0.31666,-2.107837 -4.31985,-2.330284 -4.43696,-2.908218 -4.43696,-2.908218 0,0 -0.50897,-1.383476 0.23421,-1.555519 0.74318,-0.172044 1.16407,-0.172044 3.17576,0.06216 2.01169,0.234204 2.37795,-0.09263 3.64538,1.517302 1.26742,1.609932 -0.36195,1.478128 2.28846,2.070121 2.65041,0.591993 3.03262,0.144169 4.78915,1.549394 1.75653,1.405225 -0.39433,0.778825 2.63931,1.949845 3.03365,1.171021 2.8409,1.632868 4.30839,1.053919 1.4675,-0.578949 3.5062,-2.93913 4.96924,-3.23859 1.46303,-0.299459 4.59628,-1.030268 5.24875,-1.696622 0.65247,-0.666354 2.69961,-0.72721 0.76957,-2.774191 -1.93004,-2.046981 -4.77206,-2.831788 -5.94965,-4.970205 -1.1776,-2.138418 -3.78978,-6.224125 -5.19106,-7.281432 -1.40128,-1.057306 -4.98996,-4.435191 -6.73548,-4.318088 -1.74553,0.117102 -4.57633,0.936816 -5.8441,0.936816 -1.26777,0 -2.07473,0.247802 -5.06344,-0.358596 -2.9887,-0.606399 2.32686,3.688954 -5.23497,-1.667433 -7.56183,-5.356387 -5.41362,-2.579555 -6.50385,-2.579555 -1.09023,0 -3.64526,0.686467 -3.64526,0.686467 z"
       id="path4981-5"
       sodipodi:nodetypes="cssssssssssssscssssssssssssssssscc" />
    <path
       style="opacity:0.26;fill:#00ffff;fill-rule:evenodd;stroke:none;stroke-width:1px;stroke-linecap:butt;stroke-linejoin:miter;stroke-opacity:1;filter:url(#filter5427)"
       d="m 364.33833,21.572812 c 1.2324,-2.193272 0.6769,-5.242415 2.25308,-7.203262 1.33313,-1.658477 3.78529,-1.967735 5.54041,-3.170778 1.84019,-1.2613514 4.19639,-2.2242316 5.19593,-4.2187825 C 378.371,4.8982144 375.92978,1.6130316 377.60915,0 c 0.15035,-0.14440869 0.6254,0 0.6254,0 l -20.89395,-3.6178555 1.08103,32.6675705 c 0,0 2.46363,-3.352558 3.43437,-4.450849 0.97074,-1.098291 2.10626,-2.857758 2.10626,-2.857758 M 199.13813,263.84308 c -1.18389,0.40987 0.93985,3.3736 -0.93542,4.31309 -2.02954,1.01677 -4.31993,1.40942 -6.5237,1.95373 -1.67379,0.41341 -3.38409,0.66172 -5.07593,0.99364 -4.12773,0.80982 -8.20259,1.96031 -12.38218,2.43462 -3.44468,0.39092 -6.92874,0.27602 -10.39509,0.33122 -2.14377,0.0341 -4.28829,0.0296 -6.43213,0 -3.99686,-0.0552 -8.27604,-1.81633 -11.98716,-0.33122 -1.689,0.6759 -2.27718,2.95079 -3.84544,3.87281 -0.70336,0.41352 -1.55786,0.49491 -2.35639,0.66243 -4.23369,0.88818 -8.78176,0.33834 -12.85142,1.8049 -1.5072,0.54314 -2.63637,1.85173 -4.09183,2.52127 -0.65742,0.30242 -1.4011,0.38009 -2.06739,0.66243 -1.41679,0.60038 -2.67862,1.52103 -4.06967,2.17885 -2.57496,1.21768 -5.29697,2.10108 -7.89723,3.26375 -1.82915,0.81788 -3.49363,3.17742 -5.41511,2.60941 -1.66584,-0.49244 -0.98756,-4.22669 -2.71009,-4.45118 -2.166412,-0.28233 -4.583768,2.35779 -4.729387,4.53766 -0.153534,2.29836 3.430215,3.27445 4.305791,5.40504 0.392416,0.95487 0.275936,2.04843 0.331216,3.07931 0.0812,1.5152 1.00939,3.41919 0,4.55214 -0.638787,0.71698 -1.9307,0.56648 -2.861701,0.33121 -1.898086,-0.47966 -3.485679,-1.92689 -4.813085,-3.36592 -1.021916,-1.10785 -1.24607,-2.80958 -2.284338,-3.90212 -1.61184,-1.69609 -3.86427,-2.64414 -5.869397,-3.85005 -2.296376,-1.38107 -4.677609,-2.61684 -7.045792,-3.87079 -2.404483,-1.27317 -5.185229,-1.96147 -7.271399,-3.70801 -0.628331,-0.52604 -1.606048,-1.14915 -1.484523,-1.95955 0.336092,-2.24126 3.619456,-2.734 5.514652,-3.97676 1.265383,-0.82977 2.443657,-1.91778 3.90281,-2.3185 2.255584,-0.61945 4.736137,0.51742 7.017288,0 1.508597,-0.34219 2.953212,-1.06859 4.186598,-2.00225 1.93574,-1.46533 6.111871,-3.42309 4.80795,-5.47103 -1.860996,-2.92289 -6.593591,2.17252 -9.978408,2.91386 -1.47148,0.32228 -3.211069,1.4892 -4.470266,0.66243 -2.094656,-1.37531 0.371121,-6.30498 -1.944956,-7.26146 -1.591688,-0.65733 -2.746328,2.5814 -4.468366,2.593 -0.656013,0.004 -1.107463,-0.7182 -1.715387,-0.96478 -1.640233,-0.66529 -3.930767,-2.65479 -5.133868,-1.35652 -1.685443,1.81877 4.11785,5.19987 2.441374,7.02691 -1.67899,1.82978 -5.346618,-0.20353 -7.221264,-1.83227 -1.238516,-1.07606 -1.548291,-2.94517 -1.865104,-4.55497 -0.292591,-1.48672 0.458019,-3.10136 0,-4.54571 -0.255144,-0.80459 -0.636544,-1.88076 -1.459253,-2.06949 -1.385515,-0.31783 -2.432705,1.48641 -3.730855,2.06561 -1.298151,0.5792 -2.187156,-48.31041 -1.855942,-49.34241 -0.11213,-26.53508 11.705134,-36.33849 40.627941,-37.1326 31.079261,4.24204 64.790341,21.85841 56.952011,-35.29653 -38.78268,-30.63347 -1.93153,-74.375947 28.19269,-51.603289 11.59154,10.079204 25.42191,28.054519 30.02873,45.686479 10.87258,41.61332 -13.84789,95.38528 -9.06958,128.71161 z"
       id="path4975-2"
       sodipodi:nodetypes="ssssssccsccssssssssssssssssssssssssssssssssssssssssssssccccsc" />
    <path
       style="font-variation-settings:normal;opacity:0.26;vector-effect:none;fill:#00ffff;fill-opacity:1;fill-rule:evenodd;stroke:none;stroke-width:1px;stroke-linecap:butt;stroke-linejoin:miter;stroke-miterlimit:4;stroke-dasharray:none;stroke-dashoffset:0;stroke-opacity:1;-inkscape-stroke:none;filter:url(#filter5427);stop-color:#000000;stop-opacity:1"
       d="m 477.57813,167.95207 c -1.29463,-5.62929 -2.96599,-12.36118 -7.84678,-15.45034 -6.94798,-4.39753 -16.80591,-3.12152 -24.65863,-0.68276 -20.81075,6.46304 -32.16577,5.47842 -39.82653,-6.48783 -32.87953,-33.27521 -52.37477,-9.67573 -59.88373,22.72919 -6.40811,30.7761 -38.94584,39.55172 -49.88928,2.28783 -7.39961,-25.19666 -39.43284,-37.71793 -52.82139,-27.08249 -11.21391,8.90796 -8.89551,25.2896 11.70759,53.5996 7.24548,9.95576 5.44601,34.87174 5.13309,35.74109 -0.27166,0.75474 -1.57301,25.09305 -1.91145,31.49793 -0.0514,0.97273 3.67957,3.89124 3.67957,3.89124 2.42992,0.25618 4.96064,0.10963 7.29896,0.84886 1.55918,0.49291 2.90662,1.50016 4.33773,2.29133 1.37352,0.75933 2.6635,1.67284 4.07643,2.35603 1.84503,0.89213 3.7765,1.60279 5.71709,2.26169 2.20547,0.74884 4.39027,1.88945 6.71923,1.91714 2.54741,0.0303 5.01051,-2.81249 7.39726,-1.92162 2.4627,0.91922 2.2474,5.09035 4.46679,6.49895 1.13839,0.72251 2.64784,0.54472 3.99172,0.6541 3.16882,0.25791 6.42868,-0.66387 9.5379,0 1.76433,0.37672 3.2706,1.52725 4.94033,2.21047 2.31374,0.94673 4.59286,2.05484 7.02937,2.61438 3.16389,0.72658 6.76178,2.31956 9.69446,0.92762 1.5565,-0.73876 1.89399,-2.87897 2.87185,-4.2975 1.57836,-2.28965 2.84702,-4.85396 4.83374,-6.79989 1.9318,-1.89214 4.80384,-2.64199 6.70799,-4.56196 1.65101,-1.66472 3.53544,-3.53381 3.90722,-5.84874 0.60231,-3.75034 -1.03678,-9.23376 4.94331,-8.80654 3.901,0.27869 7.31168,-2.8321 11.10257,-3.79369 3.84959,-0.97648 7.79004,-1.65491 11.74761,-1.98729 0.81729,-0.0686 1.68231,0.25903 2.46049,0 3.05276,-1.01617 4.81932,-4.40688 7.7267,-5.78497 1.62504,-0.77026 3.4662,-0.98292 5.23709,-1.29599 1.93699,-0.34244 3.94074,-0.23445 5.86709,-0.63239 2.89227,-0.59748 5.69358,-1.596 8.46417,-2.61877 2.98198,-1.10081 5.83223,-2.53016 8.75625,-3.7768 0.93585,-0.399 2.0128,-0.55637 2.81257,-1.18517 3.33535,-2.62237 4.94627,-6.89843 7.57088,-10.23202 2.64995,-3.36576 4.90449,-7.1775 8.24859,-9.85473 2.4092,-1.92877 5.3242,-3.19977 8.22796,-4.24502 2.43743,-0.87739 5.00362,-1.58255 7.59312,-1.65607 7.00648,-0.19893 11.91823,2.24242 19.2909,3.32903 0,0 6.23291,-31.46676 2.74017,-46.6539 z"
       id="path5018"
       sodipodi:nodetypes="sssccssssscsssssssssssssssssssssssssssssscs" />
    <path
       style="font-variation-settings:normal;opacity:0.26;vector-effect:none;fill:#00ffff;fill-opacity:1;fill-rule:evenodd;stroke:none;stroke-width:1px;stroke-linecap:butt;stroke-linejoin:miter;stroke-miterlimit:4;stroke-dasharray:none;stroke-dashoffset:0;stroke-opacity:1;-inkscape-stroke:none;filter:url(#filter5427);stop-color:#000000;stop-opacity:1"
       d="M 505.65387,96.180655 C 490.54204,76.049831 473.42654,81.627782 447.04066,83.733712 428.88598,85.182688 408.50251,82.1129 393.84746,81.226926 367.9499,83.589321 364.91789,54.810288 358.87576,36.167849 c 3.04568,-1.724145 3.10003,-3.339615 5.61823,-5.434143 0.59048,-0.491137 1.10119,-1.080558 1.55548,-1.69984 1.94953,-2.657599 3.83313,-5.457966 4.95359,-8.557657 0.44351,-1.226946 -0.61907,-4.123555 0.6583,-3.858174 3.31462,0.688632 8.07505,2.766735 10.29685,-1.656073 1.59553,-3.176123 6.77634,3.715505 10.24711,2.949193 3.48692,-0.769878 6.74124,-0.948192 8.15794,1.957278 1.9488,3.996718 8.90584,-0.337106 13.33956,0 4.28908,0.326109 8.97736,-0.104244 12.75605,1.951021 2.04288,1.111145 2.7945,2.936983 2.61228,5.255348 -0.2317,2.947876 -3.25775,6.161752 -6.0966,6.989144 -1.72235,0.501983 -2.28981,-1.936524 -4.08057,-2.044519 -2.99358,-0.180533 -5.99803,0 -8.99705,0 -0.7554,0 -1.70584,-0.506586 -2.26619,0 -1.53466,1.387405 0.6899,4.576959 -0.62394,6.175049 -1.61683,1.96664 -4.7996,1.782659 -7.30718,2.222943 -4.09011,0.718151 -9.19602,-1.940025 -12.44101,0.651271 -1.46233,1.167726 -1.98962,3.589359 -1.52653,5.402494 0.32102,1.256892 1.84762,1.82297 2.72452,2.778937 1.13298,1.23513 1.91623,2.83354 3.27398,3.816246 1.11224,0.805011 2.4398,1.452373 3.80767,1.570874 3.51182,0.304236 6.98785,-1.152388 10.32361,-2.291767 1.71458,-0.58564 3.11398,-2.148133 4.91817,-2.314369 2.44395,-0.225182 4.67948,2.096654 7.12281,1.864902 1.72045,-0.163186 3.34096,-1.139139 4.67914,-2.232697 1.46616,-1.198149 3.32042,-2.645795 3.41832,-4.536725 0.0876,-1.693092 -3.25839,-2.783839 -2.62489,-4.356391 0.46885,-1.163827 2.51853,-1.549453 3.63511,-0.977118 2.33796,1.198394 1.18002,5.292416 2.78298,7.373934 0.69201,0.898609 1.944,1.19846 2.77085,1.974795 1.29786,1.218562 2.59286,2.542489 3.36738,4.145439 0.66343,1.373034 -0.0742,3.373759 0.98943,4.466456 2.22302,2.283713 6.16907,1.607216 9.27571,2.318503 4.22491,0.967322 8.40443,-0.331899 12.7048,0.208808 2.32322,0.292108 4.73417,2.36365 7.0425,2.756467 1.51145,0.25721 2.87278,1.260558 4.40461,1.324858 1.06692,0.04478 2.07962,-0.495383 3.13433,-0.662429 3.09574,-0.490306 6.28839,-0.323936 9.35034,-0.993644 2.58557,-0.565515 5.0741,-1.534579 7.52495,-2.53373 2.81512,-1.147655 5.3307,-3.000232 8.21454,-3.962244 3.24391,-1.082127 6.84222,-0.840809 10.06542,-1.983144 2.89261,-1.025172 5.18368,-3.474352 8.13781,-4.305791 1.69223,-0.476276 3.54944,0.0623 5.26377,-0.32699 3.9877,-0.905518 7.37005,-3.760563 11.37176,-4.602012 3.60613,-0.758269 7.46147,-1.168833 11.05,-0.331214 1.60341,0.374261 2.7162,2.257762 4.36159,2.318502 1.90344,0.07026 3.36573,-1.910632 5.22965,-2.302845 1.81277,-0.381448 3.75851,0.442311 5.55739,0 2.50562,-0.616086 4.47222,-2.607218 6.85815,-3.589598 3.04955,-1.255621 6.23405,-2.205272 9.4549,-2.914119 3.18347,-0.700621 6.45434,-1.696181 9.69094,-1.309181 10.4003,0.770873 4.30133,12.901709 4.54943,21.41616 -2.07737,1.116652 -4.70388,0.603048 -6.95187,1.316459 -2.77326,0.880111 -6.49491,1.095103 -7.94333,3.618526 -1.08811,1.895699 0.26538,4.37439 0.66243,6.523812 0.45252,2.449745 0.96363,4.927274 1.95114,7.214381 1.40462,3.253172 4.09931,5.831092 5.56588,9.056813 1.22573,2.696005 1.96042,5.600437 2.64575,8.481614 0.77924,3.275977 0.95287,6.672328 1.65608,9.965468 0.72705,3.4048 3.2772,6.68032 2.64551,10.10409 -0.43951,2.38214 -3.16729,3.73268 -4.22816,5.91036 -1.38736,2.84789 -0.58512,6.74038 -2.67802,9.11841 -1.95472,2.22097 -7.21569,0.88128 -9.81636,2.29207 -4.51916,2.45151 -6.45213,7.77858 -11.20583,9.73692 -2.51373,1.03556 -5.28762,1.35224 -7.99265,1.62433 -1.65771,0.16674 -3.495,-0.71842 -4.99822,0 -2.92911,1.39989 -3.4231,5.7673 -6.11745,7.57832 -2.5203,1.69403 -5.41903,2.8584 -8.39758,3.44988 -2.16646,0.43021 -4.74236,-0.53384 -6.92021,-0.16561 -1.32223,-1.84952 -7.83998,3.58463 -8.91365,2.47237 0.0603,-7.59639 -8.0461,-60.960492 -13.47334,-60.397615 z"
       id="path5020"
       sodipodi:nodetypes="csccssssssssssssssssssssssssssccssssssssssssssssssssssccssssssssssscccssccc" />
  </g>
  <g
     inkscape:groupmode="layer"
     id="layer9"
     inkscape:label="towns">
    <text
       xml:space="preserve"
       style="font-style:normal;font-variant:normal;font-weight:normal;font-stretch:normal;font-size:16px;line-height:125%;font-family:Arimo;-inkscape-font-specification:Arimo;font-variant-ligatures:none;letter-spacing:0px;word-spacing:0px;writing-mode:lr-tb;fill:#000000;stroke:none;stroke-width:1px;stroke-linecap:butt;stroke-linejoin:miter;stroke-opacity:1"
       x="4.574748"
       y="309.29663"
       id="text5518"><tspan
         sodipodi:role="line"
         id="tspan5516"
         x="4.574748"
         y="309.29663">Portsmouth</tspan></text>
    <text
       xml:space="preserve"
       style="font-style:normal;font-variant:normal;font-weight:bold;font-stretch:normal;font-size:24px;line-height:125%;font-family:Arimo;-inkscape-font-specification:'Arimo Bold';font-variant-ligatures:none;font-variant-position:normal;font-variant-caps:normal;font-variant-numeric:normal;font-variant-alternates:normal;font-variant-east-asian:normal;font-feature-settings:normal;text-indent:0;text-align:start;text-decoration-line:none;text-decoration-style:solid;text-decoration-color:#000000;letter-spacing:0px;word-spacing:0px;text-transform:none;writing-mode:lr-tb;direction:ltr;text-orientation:mixed;dominant-baseline:auto;baseline-shift:baseline;white-space:normal;opacity:1;vector-effect:none;fill:#000000;fill-opacity:1;stroke:none;stroke-width:1px;stroke-linecap:butt;stroke-linejoin:miter;stroke-miterlimit:4;stroke-dasharray:none;stroke-dashoffset:0;stroke-opacity:1;-inkscape-stroke:none;stop-color:#000000;stop-opacity:1"
       x="197.97786"
       y="47.402523"
       id="text5522"><tspan
         sodipodi:role="line"
         id="tspan5520"
         x="197.97786"
         y="47.402523">London</tspan></text>
    <text
       xml:space="preserve"
       style="font-style:italic;font-variant:normal;font-weight:normal;font-stretch:normal;font-size:24px;line-height:125%;font-family:'Linux Libertine O';-inkscape-font-specification:'Linux Libertine O Italic';font-variant-ligatures:none;letter-spacing:0px;word-spacing:0px;writing-mode:lr-tb;fill:#000000;stroke:none;stroke-width:1px;stroke-linecap:butt;stroke-linejoin:miter;stroke-opacity:1"
       x="110.06526"
       y="228.41078"
       id="text5677"><tspan
         sodipodi:role="line"
         id="tspan5675"
         x="110.06526"
         y="228.41078">trough</tspan></text>
    <text
       xml:space="preserve"
       style="font-style:italic;font-variant:normal;font-weight:normal;font-stretch:normal;font-size:24px;line-height:125%;font-family:'Linux Libertine O';-inkscape-font-specification:'Linux Libertine O Italic';font-variant-ligatures:none;letter-spacing:0px;word-spacing:0px;writing-mode:lr-tb;fill:#000000;stroke:none;stroke-width:1px;stroke-linecap:butt;stroke-linejoin:miter;stroke-opacity:1"
       x="332.28952"
       y="218.8084"
       id="text5681"><tspan
         sodipodi:role="line"
         id="tspan5679"
         x="332.28952"
         y="218.8084">trough</tspan></text>
    <text
       xml:space="preserve"
       style="font-style:italic;font-variant:normal;font-weight:normal;font-stretch:normal;font-size:24px;line-height:125%;font-family:'Linux Libertine O';-inkscape-font-specification:'Linux Libertine O Italic';font-variant-ligatures:none;letter-spacing:0px;word-spacing:0px;writing-mode:lr-tb;fill:#000000;stroke:none;stroke-width:1px;stroke-linecap:butt;stroke-linejoin:miter;stroke-opacity:1"
       x="505.09915"
       y="77.693962"
       id="text5526"><tspan
         sodipodi:role="line"
         id="tspan5524"
         x="505.09915"
         y="77.693962">trough</tspan></text>
    <text
       xml:space="preserve"
       style="font-style:italic;font-variant:normal;font-weight:normal;font-stretch:normal;font-size:24px;line-height:125%;font-family:'Linux Libertine O';-inkscape-font-specification:'Linux Libertine O Italic';font-variant-ligatures:none;font-variant-position:normal;font-variant-caps:normal;font-variant-numeric:normal;font-variant-alternates:normal;font-variant-east-asian:normal;font-feature-settings:normal;font-variation-settings:normal;text-indent:0;text-align:start;text-decoration-line:none;text-decoration-style:solid;text-decoration-color:#000000;letter-spacing:0px;word-spacing:0px;text-transform:none;writing-mode:lr-tb;direction:ltr;text-orientation:mixed;dominant-baseline:auto;baseline-shift:baseline;white-space:normal;opacity:1;vector-effect:none;fill:#000000;fill-opacity:1;stroke:none;stroke-width:1px;stroke-linecap:butt;stroke-linejoin:miter;stroke-miterlimit:4;stroke-dasharray:none;stroke-dashoffset:0;stroke-opacity:1;-inkscape-stroke:none;stop-color:#000000;stop-opacity:1"
       x="425.85791"
       y="114.00504"
       id="text5685"><tspan
         sodipodi:role="line"
         id="tspan5683"
         x="425.85791"
         y="114.00504">manger</tspan></text>
    <text
       xml:space="preserve"
       style="font-style:italic;font-variant:normal;font-weight:normal;font-stretch:normal;font-size:24px;line-height:125%;font-family:'Linux Libertine O';-inkscape-font-specification:'Linux Libertine O Italic';font-variant-ligatures:none;font-variant-position:normal;font-variant-caps:normal;font-variant-numeric:normal;font-variant-alternates:normal;font-variant-east-asian:normal;font-feature-settings:normal;font-variation-settings:normal;text-indent:0;text-align:start;text-decoration-line:none;text-decoration-style:solid;text-decoration-color:#000000;letter-spacing:0px;word-spacing:0px;text-transform:none;writing-mode:lr-tb;direction:ltr;text-orientation:mixed;dominant-baseline:auto;baseline-shift:baseline;white-space:normal;opacity:1;vector-effect:none;fill:#000000;fill-opacity:1;stroke:none;stroke-width:1px;stroke-linecap:butt;stroke-linejoin:miter;stroke-miterlimit:4;stroke-dasharray:none;stroke-dashoffset:0;stroke-opacity:1;-inkscape-stroke:none;stop-color:#000000;stop-opacity:1"
       x="234.63974"
       y="104.1122"
       id="text5689"><tspan
         sodipodi:role="line"
         id="tspan5687"
         x="234.63974"
         y="104.1122">manger</tspan></text>
    <text
       xml:space="preserve"
       style="font-style:italic;font-variant:normal;font-weight:normal;font-stretch:normal;font-size:24px;line-height:125%;font-family:'Linux Libertine O';-inkscape-font-specification:'Linux Libertine O Italic';font-variant-ligatures:none;font-variant-position:normal;font-variant-caps:normal;font-variant-numeric:normal;font-variant-alternates:normal;font-variant-east-asian:normal;font-feature-settings:normal;font-variation-settings:normal;text-indent:0;text-align:start;text-decoration-line:none;text-decoration-style:solid;text-decoration-color:#000000;letter-spacing:0px;word-spacing:0px;text-transform:none;writing-mode:lr-tb;direction:ltr;text-orientation:mixed;dominant-baseline:auto;baseline-shift:baseline;white-space:normal;opacity:1;vector-effect:none;fill:#000000;fill-opacity:1;stroke:none;stroke-width:1px;stroke-linecap:butt;stroke-linejoin:miter;stroke-miterlimit:4;stroke-dasharray:none;stroke-dashoffset:0;stroke-opacity:1;-inkscape-stroke:none;stop-color:#000000;stop-opacity:1"
       x="132.2515"
       y="83.311798"
       id="text5530"
       transform="rotate(27.534679)"><tspan
         sodipodi:role="line"
         id="tspan5528"
         x="132.2515"
         y="83.311798">manger</tspan></text>
    <text
       xml:space="preserve"
       style="font-style:normal;font-variant:normal;font-weight:normal;font-stretch:normal;font-size:16px;line-height:125%;font-family:Arimo;-inkscape-font-specification:Arimo;font-variant-ligatures:none;font-variant-position:normal;font-variant-caps:normal;font-variant-numeric:normal;font-variant-alternates:normal;font-variant-east-asian:normal;font-feature-settings:normal;font-variation-settings:normal;text-indent:0;text-align:start;text-decoration-line:none;text-decoration-style:solid;text-decoration-color:#000000;letter-spacing:0px;word-spacing:0px;text-transform:none;writing-mode:lr-tb;direction:ltr;text-orientation:mixed;dominant-baseline:auto;baseline-shift:baseline;white-space:normal;opacity:1;vector-effect:none;fill:#000000;fill-opacity:1;stroke:none;stroke-width:1px;stroke-linecap:butt;stroke-linejoin:miter;stroke-miterlimit:4;stroke-dasharray:none;stroke-dashoffset:0;stroke-opacity:1;-inkscape-stroke:none;stop-color:#000000;stop-opacity:1"
       x="512.396"
       y="177.22243"
       id="text5538"><tspan
         sodipodi:role="line"
         id="tspan5536"
         x="512.396"
         y="177.22243">Folkestone</tspan></text>
    <text
       xml:space="preserve"
       style="font-style:normal;font-variant:normal;font-weight:normal;font-stretch:normal;font-size:16px;line-height:125%;font-family:Arimo;-inkscape-font-specification:Arimo;font-variant-ligatures:none;font-variant-position:normal;font-variant-caps:normal;font-variant-numeric:normal;font-variant-alternates:normal;font-variant-east-asian:normal;font-feature-settings:normal;font-variation-settings:normal;text-indent:0;text-align:start;text-decoration-line:none;text-decoration-style:solid;text-decoration-color:#000000;letter-spacing:0px;word-spacing:0px;text-transform:none;writing-mode:lr-tb;direction:ltr;text-orientation:mixed;dominant-baseline:auto;baseline-shift:baseline;white-space:normal;opacity:1;vector-effect:none;fill:#000000;fill-opacity:1;stroke:none;stroke-width:1px;stroke-linecap:butt;stroke-linejoin:miter;stroke-miterlimit:4;stroke-dasharray:none;stroke-dashoffset:0;stroke-opacity:1;-inkscape-stroke:none;stop-color:#000000;stop-opacity:1"
       x="206.53107"
       y="286.89725"
       id="text5514"
       inkscape:transform-center-y="-1.220869"><tspan
         sodipodi:role="line"
         id="tspan5512"
         x="206.53107"
         y="286.89725">Brighton</tspan></text>
    <circle
       style="color:#000000;font-variation-settings:normal;overflow:visible;opacity:1;vector-effect:none;fill:#aa0000;fill-opacity:1;stroke:none;stroke-width:1.7264px;stroke-linecap:butt;stroke-linejoin:miter;stroke-miterlimit:4;stroke-dasharray:none;stroke-dashoffset:0;stroke-opacity:1;-inkscape-stroke:none;stop-color:#000000;stop-opacity:1"
       id="circle5849"
       cx="26.649456"
       cy="279.43524"
       r="6.192637" />
    <circle
       style="color:#000000;font-variation-settings:normal;overflow:visible;opacity:1;vector-effect:none;fill:#aa0000;fill-opacity:1;stroke:none;stroke-width:1.7264px;stroke-linecap:butt;stroke-linejoin:miter;stroke-miterlimit:4;stroke-dasharray:none;stroke-dashoffset:0;stroke-opacity:1;-inkscape-stroke:none;stop-color:#000000;stop-opacity:1"
       id="circle5851"
       cx="235.22047"
       cy="255.3157"
       r="6.192637" />
    <circle
       style="color:#000000;font-variation-settings:normal;overflow:visible;opacity:1;vector-effect:none;fill:#aa0000;fill-opacity:1;stroke:none;stroke-width:1.7264px;stroke-linecap:butt;stroke-linejoin:miter;stroke-miterlimit:4;stroke-dasharray:none;stroke-dashoffset:0;stroke-opacity:1;-inkscape-stroke:none;stop-color:#000000;stop-opacity:1"
       id="path5743"
       cx="509.36813"
       cy="153.09515"
       r="6.192637" />
    <path
       style="font-variation-settings:normal;opacity:1;vector-effect:none;fill:none;fill-opacity:1;fill-rule:evenodd;stroke:#800080;stroke-width:3.2686;stroke-linecap:butt;stroke-linejoin:miter;stroke-miterlimit:4;stroke-dasharray:none;stroke-dashoffset:0;stroke-opacity:1;-inkscape-stroke:none;stop-color:#000000;stop-opacity:1"
       d="M 501.77935,150.68084 C 498.82933,150.19504 265.86095,100.4499 264.82771,50.952367"
       id="path5853"
       sodipodi:nodetypes="cc" />
    <path
       style="font-variation-settings:normal;opacity:1;vector-effect:none;fill:none;fill-opacity:1;fill-rule:evenodd;stroke:#800080;stroke-width:3.2686;stroke-linecap:butt;stroke-linejoin:miter;stroke-miterlimit:4;stroke-dasharray:none;stroke-dashoffset:0;stroke-opacity:1;-inkscape-stroke:none;stop-color:#000000;stop-opacity:1"
       d="M 234.5029,247.17125 C 234.26859,245.7723 217.28992,51.383216 217.28992,51.383216"
       id="path5855"
       sodipodi:nodetypes="cc" />
    <path
       style="fill:none;fill-rule:evenodd;stroke:#800080;stroke-width:3.2686;stroke-linecap:butt;stroke-linejoin:miter;stroke-opacity:1"
       d="M 25.852984,271.86799 C 18.665592,111.40225 99.500482,86.294562 173.8338,51.188944"
       id="path5857"
       sodipodi:nodetypes="cc" />
  </g>
</svg>
