<?xml version="1.0" encoding="UTF-8" standalone="no"?>
<!-- Created with Inkscape (http://www.inkscape.org/) -->

<svg
   version="1.1"
   id="svg3757"
   width="634.46667"
   height="410.51605"
   viewBox="0 0 634.46667 410.51606"
   sodipodi:docname="vauxdroppedegg.svg"
   inkscape:version="1.2.2 (b0a8486541, 2022-12-01)"
   xmlns:inkscape="http://www.inkscape.org/namespaces/inkscape"
   xmlns:sodipodi="http://sodipodi.sourceforge.net/DTD/sodipodi-0.dtd"
   xmlns:xlink="http://www.w3.org/1999/xlink"
   xmlns="http://www.w3.org/2000/svg"
   xmlns:svg="http://www.w3.org/2000/svg">
  <defs
     id="defs3761" />
  <sodipodi:namedview
     id="namedview3759"
     pagecolor="#ffffff"
     bordercolor="#666666"
     borderopacity="1.0"
     inkscape:showpageshadow="2"
     inkscape:pageopacity="0.0"
     inkscape:pagecheckerboard="0"
     inkscape:deskcolor="#d1d1d1"
     showgrid="false"
     inkscape:zoom="2.0892351"
     inkscape:cx="354.91458"
     inkscape:cy="332.17899"
     inkscape:window-width="3840"
     inkscape:window-height="2136"
     inkscape:window-x="0"
     inkscape:window-y="0"
     inkscape:window-maximized="1"
     inkscape:current-layer="g3763" />
  <g
     inkscape:groupmode="layer"
     inkscape:label="Image"
     id="g3763"
     transform="translate(-28.549859,-23.225379)">
    <image
       width="689.91998"
       height="451.84"
       preserveAspectRatio="none"
       xlink:href="vauxdroppedegg.jpg"
       id="image3765"
       style="display:none;opacity:0.334829" />
    <path
       style="fill:none;fill-rule:evenodd;stroke:#000000;stroke-width:1px;stroke-linecap:butt;stroke-linejoin:miter;stroke-opacity:1"
       d="m 180.92927,338.09688 2.26695,-64.54934 V 235.92116 L 165.14181,214.33245 V 39.844307 h -61.20394 l -6.367343,-1.946545 -36.35355,-6.362024 -0.725153,3.19084 4.317846,3.428577 c 0,0 -1.651365,3.173813 -2.382197,2.919973 -0.730831,-0.253839 -4.355334,-1.269196 -4.355334,-1.269196 l -2.874493,2.634006 0.548152,14.803288 c 0,0 3.13335,6.98947 2.735117,7.061348 -0.398233,0.07188 -16.819972,-0.635859 -16.819972,-0.635859 0,0 -4.202752,-2.147595 -4.278228,-3.048174 -0.07548,-0.900579 -0.133647,-11.827368 -0.20712,-12.494135 -0.07347,-0.666768 2.91945,-5.94118 3.421926,-5.94118 0.502475,0 11.82573,0.157178 11.82573,0.157178 l 2.713014,0.04219"
       id="path4248"
       sodipodi:nodetypes="ccccc" />
    <path
       style="fill:none;fill-rule:evenodd;stroke:#000000;stroke-width:1px;stroke-linecap:butt;stroke-linejoin:miter;stroke-opacity:1"
       d="M 58.480915,64.304574 V 99.705869 L 56.6625,139.78511 H 37.676743 l -6.040778,8.64287 v 47.84273 l -1.411596,5.23366 c 0,0 -1.39255,3.70005 -0.134283,4.48336 1.258266,0.78332 4.953779,1.42692 5.062689,2.12337 0.10891,0.69645 -2.044988,4.91884 -1.925327,5.72222 0.119661,0.80337 2.410471,3.58395 2.410471,3.58395 0,0 -2.046565,2.91849 -2.517482,3.49857 -0.470917,0.58008 -4.070578,2.74205 -4.070578,2.74205 v 49.81417 l 10.460559,36.31661 -2.839468,3.6554 v 25.6923 h 19.942003 v -8.31808 c 0,0 7.494516,-3.32762 7.614177,-3.8954 0.119661,-0.56777 0,-17.13422 0,-17.13422 H 39.510418"
       id="path4252"
       sodipodi:nodetypes="cccccccssscscccccccscc" />
    <path
       style="fill:none;fill-rule:evenodd;stroke:#000000;stroke-width:1px;stroke-linecap:butt;stroke-linejoin:miter;stroke-opacity:1"
       d="m 64.22713,309.78867 h 15.46233 v -76.81858 l 2.148279,-2.14828 h 6.575348 L 74.806149,200.3257 V 139.4948 H 56.675671"
       id="path4254"
       sodipodi:nodetypes="cccccccc" />
    <path
       style="fill:none;fill-rule:evenodd;stroke:#000000;stroke-width:1px;stroke-linecap:butt;stroke-linejoin:miter;stroke-opacity:1"
       d="m 97.570527,37.897762 v 43.342055 l -3.398706,5.886731 V 100.88256 H 58.427528"
       id="path4256" />
    <path
       style="fill:none;fill-rule:evenodd;stroke:#000000;stroke-width:1px;stroke-linecap:butt;stroke-linejoin:miter;stroke-opacity:1"
       d="m 94.171821,100.88256 3.898706,1.05946 v 32.0093 l -1.887793,5.54348 H 74.806149"
       id="path4258"
       sodipodi:nodetypes="ccccc" />
    <path
       style="fill:none;fill-rule:evenodd;stroke:#000000;stroke-width:1px;stroke-linecap:butt;stroke-linejoin:miter;stroke-opacity:1"
       d="m 111.3275,39.844307 v 49.938491 l 3.13774,3.718344 3.50589,13.084168 -8.80673,32.86717 -2.16114,3.1804 -9.566137,0.11966 -1.254389,-3.25774"
       id="path4260" />
    <path
       style="fill:none;fill-rule:evenodd;stroke:#000000;stroke-width:1px;stroke-linecap:butt;stroke-linejoin:miter;stroke-opacity:1"
       d="m 97.437123,142.75254 -2.485186,3.9549 v 141.73772 l -3.746731,13.98299 -2.021513,7.45187 h -9.942931"
       id="path4262" />
    <path
       style="fill:none;fill-rule:evenodd;stroke:#000000;stroke-width:1px;stroke-linecap:butt;stroke-linejoin:miter;stroke-opacity:1"
       d="m 88.413087,230.82181 85.928773,0.83157 2.49411,-3.33755"
       id="path4264" />
    <path
       style="fill:none;fill-rule:evenodd;stroke:#000000;stroke-width:1px;stroke-linecap:butt;stroke-linejoin:miter;stroke-opacity:1"
       d="m 135.99263,39.844307 v 38.462477 h 29.14918"
       id="path4266" />
    <path
       style="fill:none;fill-rule:evenodd;stroke:#000000;stroke-width:1px;stroke-linecap:butt;stroke-linejoin:miter;stroke-opacity:1"
       d="m 135.99263,78.306784 -1.81484,27.654396 H 117.8039"
       id="path4268" />
    <path
       style="fill:none;fill-rule:evenodd;stroke:#000000;stroke-width:1px;stroke-linecap:butt;stroke-linejoin:miter;stroke-opacity:1"
       d="m 134.17779,105.96118 v 11.13813 h 30.96402"
       id="path4270" />
    <path
       style="fill:none;fill-rule:evenodd;stroke:#000000;stroke-width:1px;stroke-linecap:butt;stroke-linejoin:miter;stroke-opacity:1"
       d="m 134.17779,117.09931 v 30.76198 h 7.93678 l 0.15655,21.0456 86.34574,-0.15042"
       id="path4272"
       sodipodi:nodetypes="ccccc" />
    <path
       style="fill:none;fill-rule:evenodd;stroke:#000000;stroke-width:1px;stroke-linecap:butt;stroke-linejoin:miter;stroke-opacity:1"
       d="M 133.67779,141.03845 H 108.0867"
       id="path4274" />
    <path
       style="fill:none;fill-rule:evenodd;stroke:#000000;stroke-width:1px;stroke-linecap:butt;stroke-linejoin:miter;stroke-opacity:1"
       d="m 108.0867,141.03845 v 12.36489 l 5.46692,5.46692 v 72.19485"
       id="path4276" />
    <path
       style="fill:none;fill-rule:evenodd;stroke:#000000;stroke-width:1px;stroke-linecap:butt;stroke-linejoin:miter;stroke-opacity:1"
       d="M 142.27112,168.90689 Z"
       id="path4278" />
    <path
       style="fill:none;fill-rule:evenodd;stroke:#000000;stroke-width:1px;stroke-linecap:butt;stroke-linejoin:miter;stroke-opacity:1"
       d="m 133.67779,168.90689 v 62.35297"
       id="path4280" />
    <path
       style="fill:none;fill-rule:evenodd;stroke:#000000;stroke-width:1px;stroke-linecap:butt;stroke-linejoin:miter;stroke-opacity:1"
       d="m 142.27112,168.90689 h -8.59333"
       id="path4282" />
    <path
       style="fill:none;fill-rule:evenodd;stroke:#000000;stroke-width:1px;stroke-linecap:butt;stroke-linejoin:miter;stroke-opacity:1"
       d="m 108.5048,231.06511 v 21.89996 c 0,0 2.61624,2.05868 4.08253,2.35704 1.46629,0.29836 22.03137,0 22.03137,0 v 9.83323 l 3.128,3.10241 h 9.74189 l 2.63146,2.43599 h 20.28219 l 2.66342,3.16924 h 10.11948 30.13818 l 2.7175,0.72815 -0.417,6.76342 5.15425,5.15425 v 64.92143 l -15.44071,0.63348 -3.73707,-6.11048 c 0,0 -4.14001,0.86062 -4.14001,0.30813 0,-0.55248 -2.46913,-6.62499 -2.46913,-6.62499 l -3.74836,-1.52194 -10.31352,-0.0176 -5.12931,0.81196 -26.00094,30.02468 -2.08774,6.18374 c 0,0 -1.48133,3.13132 -2.19395,3.13132 -0.71262,0 -6.53779,-0.46151 -6.85857,-0.84613 -0.32078,-0.38462 -15.57913,-19.73372 -15.57913,-19.73372 l -4.0678,-14.37882 -10.80395,0.23876 c 0,0 -0.65588,-11.61556 -0.16829,-11.94507 0.48759,-0.32951 2.85173,-2.95202 2.85173,-3.50196 0,-0.54995 -0.25247,-19.61794 -0.25247,-19.61794 0,0 -6.1986,-6.48419 -6.64408,-6.48419 -0.44548,0 -5.093189,-0.29806 -6.134293,-0.29806 -1.041103,0 -6.655271,0.7467 -6.655271,0.7467"
       id="path4284" />
    <path
       style="fill:none;fill-rule:evenodd;stroke:#000000;stroke-width:1px;stroke-linecap:butt;stroke-linejoin:miter;stroke-opacity:1"
       d="m 112.58733,255.32211 v 38.54513 l -13.628232,-0.27217 -2.752016,8.22135"
       id="path4286" />
    <path
       style="fill:none;fill-rule:evenodd;stroke:#000000;stroke-width:1px;stroke-linecap:butt;stroke-linejoin:miter;stroke-opacity:1"
       d="m 165.14181,39.844307 c 0,0 15.62839,-1.946545 17.0914,-1.946545 1.46301,0 18.40153,8.179632 18.88018,9.795114 0.47864,1.615482 4.36581,11.632669 4.36581,11.632669 v 27.643591 c 0,0 7.27873,14.413424 9.96012,14.413424 2.68139,0 37.94829,3.8915 37.94829,1.4545 0,-2.437 0.97753,-8.021045 1.66929,-10.469449 0.69176,-2.448405 2.65597,-13.560827 2.65597,-13.560827 l 0.47865,-6.416719 3.54405,-2.749904 c 0,0 -7.09497,-5.335587 -7.30864,-5.335587 -0.21367,0 1.2191,-11.914865 1.2191,-13.265944 0,-1.35108 -7.86084,-8.413651 -9.22456,-8.174329 -1.36371,0.239322 -9.73998,2.153898 -9.73998,2.153898 l -8.25983,-5.173892 -15.43831,2.397624 -8.90888,14.812418"
       id="path4288" />
    <path
       style="fill:none;fill-rule:evenodd;stroke:#000000;stroke-width:1px;stroke-linecap:butt;stroke-linejoin:miter;stroke-opacity:1"
       d="m 246.42147,42.864301 c 0,0 10.05749,-15.180144 11.16038,-15.445605 1.10289,-0.265461 8.95655,-3.370367 8.95655,-3.370367 l -2.42898,9.695135 35.30313,0.707464 c 0,0 3.67262,6.09703 6.89505,6.844378 3.22244,0.747348 13.97034,-0.18475 15.47113,-0.18475 1.50078,0 12.19861,-0.236386 13.61062,1.11576 1.41201,1.352146 2.95317,7.388191 3.5659,9.149985 0.61274,1.761794 -0.10225,17.135397 -0.10225,18.26386 0,1.128463 -0.45024,13.65435 -0.45024,15.684673 0,2.030322 -1.18534,16.057726 -1.18534,16.057726 h -68.08037 l -4.47423,-9.014949 c 0,0 3.13184,-14.604162 3.13184,-16.863586 0,-2.259425 -0.82363,-8.633881 -0.82363,-8.633881 l -0.61653,-0.39582 -4.61893,3.165837"
       id="path4290"
       sodipodi:nodetypes="cscccsssssscccsccc" />
    <path
       style="fill:none;fill-rule:evenodd;stroke:#000000;stroke-width:1px;stroke-linecap:butt;stroke-linejoin:miter;stroke-opacity:1"
       d="m 253.38761,102.83706 c 0,0 5.19338,4.31617 6.22875,4.31617 1.03538,0 4.76382,-0.12697 5.69085,-0.71231 0.92704,-0.58534 3.82984,-5.05836 3.82984,-5.05836"
       id="path4292" />
    <path
       style="fill:none;fill-rule:evenodd;stroke:#000000;stroke-width:1px;stroke-linecap:butt;stroke-linejoin:miter;stroke-opacity:1"
       d="m 165.14181,103.31107 h 44.7976 l 3.54334,-3.30481"
       id="path4294" />
    <path
       style="fill:none;fill-rule:evenodd;stroke:#000000;stroke-width:1px;stroke-linecap:butt;stroke-linejoin:miter;stroke-opacity:1"
       d="m 204.47744,103.31107 10.24331,17.06754 v 37.91622 l 13.89611,10.46164 c 9.66159,14.41245 17.55132,26.78349 24.25466,47.12414 l -4.608,7.08789 -5.11244,9.85799 -8.2697,0.35899 H 180.9084"
       id="path4296"
       sodipodi:nodetypes="ccccccccc" />
    <path
       style="fill:none;fill-rule:evenodd;stroke:#000000;stroke-width:1px;stroke-linecap:butt;stroke-linejoin:miter;stroke-opacity:1"
       d="m 234.88138,233.18548 v 40.2127 l -14.10331,13.11062"
       id="path4298" />
    <path
       style="fill:none;fill-rule:evenodd;stroke:#000000;stroke-width:1px;stroke-linecap:butt;stroke-linejoin:miter;stroke-opacity:1"
       d="m 234.88138,273.39818 21.84292,-0.79703 v 65.2749 l -17.43297,0.33484 0.70659,12.77059 -19.21985,0.44875"
       id="path4300" />
    <path
       style="fill:none;fill-rule:evenodd;stroke:#000000;stroke-width:1px;stroke-linecap:butt;stroke-linejoin:miter;stroke-opacity:1"
       d="m 256.7243,337.87605 h 39.00183 V 330.766 h 78.88399 l 3.65182,2.78213 -1.31133,4.89396 -6.26024,4.94642 c 0,0 -10.2122,20.3973 -10.91766,21.31199 -0.70547,0.91469 -7.4974,13.376 -8.18346,14.29991 -0.68607,0.92392 -6.29412,7.15352 -7.84972,7.5125 -1.55559,0.35898 -5.76096,0.83763 -6.43566,0.83763 -0.6747,0 -2.68165,0.71962 -3.1603,-1.40859 -0.47864,-2.1282 -7.31825,-13.48531 -7.31825,-13.48531 l -11.02699,-3.12562 c 0,0 -3.82829,-7.90306 -4.99846,-9.43708 -1.17017,-1.53401 -7.27593,-12.85267 -7.9398,-13.31891 -0.66386,-0.46625 -4.12896,-2.62746 -4.57985,-3.3053 -0.45089,-0.67784 -2.55409,-5.39368 -2.55409,-5.39368"
       id="path4302"
       sodipodi:nodetypes="cccccccsssssccsssc" />
    <path
       style="fill:none;fill-rule:evenodd;stroke:#000000;stroke-width:1px;stroke-linecap:butt;stroke-linejoin:miter;stroke-opacity:1"
       d="m 376.95061,338.44209 h 126.35638 c 0,0 8.5615,-10.09172 9.40218,-11.56592 0.84068,-1.47421 4.2252,-10.03959 3.88675,-12.98159 -0.33845,-2.942 -8.71656,-14.03189 -8.71656,-14.03189 l -9.78806,-9.871 c 0,0 -2.65254,-2.49235 -2.31409,-5.7916 0.33845,-3.29925 0.65885,-10.94974 2.31876,-12.43747 1.65991,-1.48773 6.40312,-9.41711 6.40312,-9.41711 l 7.95876,-11.58938 2.87895,-4.70061 c 0,0 0.0191,-8.08136 0.0191,-11.1353 0,-3.05394 -0.12465,-13.90233 1.35381,-12.29948 1.47846,1.60286 3.81594,6.65843 3.81594,6.65843 0,0 -1.73821,2.26904 0.7611,2.26904 2.49931,0 24.63808,1.7796 24.63808,1.7796 l 31.30359,-38.49316 c 0,0 -3.32561,-3.98842 -3.32561,-8.11366 0,-4.12525 -0.33846,-6.87404 -0.33846,-8.83387 0,-1.95984 -2.34644,-13.22314 -1.32431,-10.25751 1.02214,2.96564 12.71064,21.5095 12.71064,21.5095 l 43.95016,1.77093 c 0,0 0.073,-7.64832 1.39082,-11.5926 1.31779,-3.94428 3.68695,-21.20536 3.68695,-21.20536 0,0 -11.1662,-11.7015 -15.06353,-11.7015 -3.89732,0 -18.70726,-0.6769 -18.70726,-0.6769 l -14.63848,-1.6563 h -16.04361 c 0,0 -10.77421,-3.6433 -12.34641,-4.62224 -1.5722,-0.97894 -16.26592,-5.02849 -16.26592,-5.02849 l -15.66377,-8.48468 c 0,0 13.56844,0.41338 16.11914,1.40034 2.55071,0.98695 18.79647,7.756 18.79647,7.756 0,0 15.72317,4.04472 18.32758,4.04472 h 26.18644 c 0,0 12.80137,-3.0242 15.65904,-3.36265 2.85768,-0.33845 13.6385,-3.16897 16.79496,-3.16897 3.15647,0 12.59678,-1.73155 15.26052,-3.71797 2.66375,-1.98643 8.07899,-6.70666 8.41744,-8.30856 0.33845,-1.60191 1.68805,-11.04846 1.68805,-11.04846 l -3.14093,-6.20281 c 0,0 0.75854,4.32865 -1.80878,5.88057 -2.56731,1.55193 -7.91339,4.89045 -8.88107,3.24419 -0.96768,-1.64626 -2.32149,-12.730048 -2.32149,-12.730048 l 0.33846,-23.126918 -4.56159,-13.907423 c 0,0 -0.58841,-12.118567 1.69226,-13.434801 2.28067,-1.316234 9.01658,-6.035915 9.01658,-6.035915 l 3.38139,-15.234559 c 0,0 -4.79692,-3.34747 -7.24318,-3.34747 -2.44626,0 -9.91395,3.707009 -17.25356,5.399271 -7.33961,1.692262 -25.70949,9.140478 -30.94857,9.140478 -5.23907,0 -20.43274,-0.663601 -24.79065,-1.002054 -4.3579,-0.338452 -18.22867,-0.878976 -21.705,-1.033969 -3.47632,-0.154994 -16.88164,-1.170351 -20.48873,-1.170351 -3.60708,0 -25.24032,-1.027504 -27.18121,-1.027504 h -24.10317 l -7.19819,1.644833 c 0,0 -9.52336,15.603363 -12.16611,16.721419 -2.64276,1.118056 -14.91092,5.361933 -16.42482,7.013531 -1.51391,1.651598 -2.83115,6.263963 -7.81858,6.940868 -4.98742,0.676905 -16.53426,1.35381 -20.36784,1.35381 -3.83357,0 -8.72795,-2.620074 -8.72795,0 0,2.620073 -0.52206,19.867133 -1.53742,22.716473 -1.01536,2.84934 -9.46944,1.025004 -14.11721,1.025004 -4.64777,0 -8.83091,0.793052 -8.83091,2.971365 0,2.178312 -1.35381,6.91665 -1.35381,6.91665 0,0 -14.45901,0.92988 -18.40617,0.92988 -3.94715,0 -13.18661,1.12148 -20.76012,-0.33845 l -7.57351,-1.45993 c 0,0 7.40719,0 0,0 -7.40719,0 -8.27711,13.31881 -8.27711,13.31881 0,0 -3.35929,4.4151 -3.35929,5.85905 0,1.44395 -2.60445,6.18678 -2.60445,6.18678 0,0 -1.26069,14.3686 -1.59914,18.33209 -0.33845,3.96349 -0.33845,19.87076 -0.33845,19.87076 l -0.0451,17.75487 0.31304,5.14401 c 0,0 -2.37887,7.06257 -4.36873,8.70949 -1.98985,1.64692 -17.47318,10.44253 -17.47318,10.44253 0,0 -13.09768,3.52983 -14.6748,3.52983 h -8.93482 c 0,0 0.097,9.09442 -4.16108,9.77132 -4.25805,0.67691 -5.88863,1.34756 -8.50061,1.34756 -2.61197,0 -10.32216,-5.76905 -10.32216,-5.76905 v 0"
       id="path4304"
       sodipodi:nodetypes="ccssccsscccsscsccsssccscscccsccscscssssccsscccsccsssssssccsssssssscsscscscscccscscsscc" />
    <path
       style="fill:none;fill-rule:evenodd;stroke:#000000;stroke-width:1px;stroke-linecap:butt;stroke-linejoin:miter;stroke-opacity:1"
       d="m 290.47741,101.38256 v 47.8945 l -7.14535,23.75156 0.37736,37.50216 h 1.08076"
       id="path4306" />
    <path
       style="fill:none;fill-rule:evenodd;stroke:#000000;stroke-width:1px;stroke-linecap:butt;stroke-linejoin:miter;stroke-opacity:1"
       d="m 383.95719,102.25106 v 80.08202 l -7.34268,22.52701 c 0,0 -6.87457,0.65631 -11.5242,1.69226 -4.64963,1.03595 -14.42121,0.41272 -20.15511,-2.92386 -5.7339,-3.33658 -11.58171,-6.2598 -13.19911,-6.56085 -1.6174,-0.30104 -10.4292,-9.21871 -10.4292,-9.21871"
       id="path4308" />
    <path
       style="fill:none;fill-rule:evenodd;stroke:#000000;stroke-width:1px;stroke-linecap:butt;stroke-linejoin:miter;stroke-opacity:1"
       d="m 376.61451,204.86009 -7.96355,13.04686 c 0,0 -0.67691,3.65103 0,5.77491 0.6769,2.12388 0.64617,13.6689 -1.29436,14.98507 -1.94052,1.31617 -12.7408,10.03002 -12.7408,10.03002 l -33.82021,37.71163 -0.30209,44.35742"
       id="path4310" />
    <path
       style="fill:none;fill-rule:evenodd;stroke:#000000;stroke-width:1px;stroke-linecap:butt;stroke-linejoin:miter;stroke-opacity:1"
       d="m 234.88138,243.09666 c 0,2.082 122.72572,3.19677 122.72572,3.19677"
       id="path4312"
       sodipodi:nodetypes="cc" />
    <path
       style="fill:none;fill-rule:evenodd;stroke:#000000;stroke-width:1px;stroke-linecap:butt;stroke-linejoin:miter;stroke-opacity:1"
       d="m 256.7243,285.11689 87.05092,0.39204 12.84277,14.38113 151.26137,-0.0274"
       id="path4314" />
    <path
       style="fill:none;fill-rule:evenodd;stroke:#000000;stroke-width:1px;stroke-linecap:butt;stroke-linejoin:miter;stroke-opacity:1"
       d="m 423.54502,299.87794 v 38.56415"
       id="path4316" />
    <path
       style="fill:none;fill-rule:evenodd;stroke:#000000;stroke-width:1px;stroke-linecap:butt;stroke-linejoin:miter;stroke-opacity:1"
       d="m 345.05664,259.356 c 0.73912,-0.82415 36.49635,-0.18729 36.49635,-0.18729 l 4.25776,7.12707 c 0,0 77.69172,-0.67883 78.64399,-0.67883 0.95227,0 3.25196,-2.33001 4.65903,-2.66846 1.40706,-0.33845 27.86372,-3.42037 29.34875,-2.92432 1.48502,0.49605 6.03657,2.32134 6.03657,2.32134"
       id="path4318" />
    <path
       style="fill:none;fill-rule:evenodd;stroke:#000000;stroke-width:1px;stroke-linecap:butt;stroke-linejoin:miter;stroke-opacity:1"
       d="m 368.8337,233.55679 c 0,0 12.83167,4.08136 14.33808,2.93227 1.5064,-1.14908 4.78779,-3.9389 5.94925,-4.38557 1.16147,-0.44668 6.17277,-2.32847 6.17277,-3.41874 0,-1.09027 1.74488,-9.33408 3.50932,-9.33408 1.76444,0 7.50371,-0.67742 11.06496,-0.87781 3.56125,-0.20039 8.1321,-2.17051 10.0319,-2.33974 1.89981,-0.16922 8.07607,-2.55953 8.07607,-2.55953 0,0 0.46327,-4.32787 3.70763,-4.32787 3.24437,0 10.59808,0.87604 12.47862,2.49721 1.88053,1.62117 4.07552,6.15047 4.92165,6.87668 0.84613,0.72622 5.95636,1.76038 6.59563,2.92616 0.63926,1.16577 0.003,8.84306 0.97772,9.31019 0.9748,0.46713 0.50429,3.38349 0.50429,3.38349 h 58.19322 l 10e-4,0.68077"
       id="path4320" />
    <path
       style="fill:none;fill-rule:evenodd;stroke:#000000;stroke-width:1px;stroke-linecap:butt;stroke-linejoin:miter;stroke-opacity:1"
       d="m 457.16159,234.23945 c 0,0 -3.9617,7.89286 -3.9617,8.41298 0,0.52012 -0.23933,7.44603 -0.23933,7.44603 h -22.47104 v -30.99033 l -1.70074,-8.03377 c 0,0 1.28781,-3.78017 1.28781,-4.46572 0,-0.68554 -4.22234,-12.12062 -5.28578,-12.93664 -1.06344,-0.81601 -13.45668,-6.50695 -14.61213,-6.50695 -1.15545,0 -15.5603,-1.9529 -15.5603,-1.9529 0,0 -0.93877,-3.70693 -2.83163,-3.70693 -1.89285,0 -7.82956,0.82786 -7.82956,0.82786 h 109.36155 l 9.94833,13.79238 -0.66797,4.95091 c 0,0 -4.08212,3.30894 -5.25324,4.00142 -1.17112,0.69247 -4.78714,2.60551 -5.32312,2.60551 -0.53597,0 -16.30424,0 -16.30424,0 l -0.21371,-25.48541"
       id="path4322" />
    <path
       style="fill:none;fill-rule:evenodd;stroke:#000000;stroke-width:1px;stroke-linecap:butt;stroke-linejoin:miter;stroke-opacity:1"
       d="m 516.70971,222.62074 c 0,0 -1.09954,-17.31519 -1.71763,-18.11382 -0.6181,-0.79863 -11.72501,-8.38146 -11.72501,-8.38146"
       id="path4324" />
    <path
       style="fill:none;fill-rule:evenodd;stroke:#000000;stroke-width:1px;stroke-linecap:butt;stroke-linejoin:miter;stroke-opacity:1"
       d="m 493.31874,182.33308 c 0,0 0.33894,-17.33572 0.91158,-17.60591 0.57264,-0.27019 15.51293,-7.2052 15.51293,-7.2052 0,0 6.245,7.92519 6.86374,7.92519 0.61874,0 53.99321,-0.93071 53.99321,-0.93071 l 1.63984,3.11316"
       id="path4326" />
    <path
       style="fill:none;fill-rule:evenodd;stroke:#000000;stroke-width:1px;stroke-linecap:butt;stroke-linejoin:miter;stroke-opacity:1"
       d="m 509.74325,157.52197 -23.0208,-39.71118 -12.29257,-4.47919 -10.78151,-2.66728 -8.74248,-8.62399 h -36.70198 c 0,0 -7.9942,-9.092847 -8.53337,-9.212508 -0.53917,-0.119661 -1.41142,-1.489781 -1.41142,-1.489781"
       id="path4328" />
    <path
       style="fill:none;fill-rule:evenodd;stroke:#000000;stroke-width:1px;stroke-linecap:butt;stroke-linejoin:miter;stroke-opacity:1"
       d="m 525.24963,125.94197 -8.42701,-8.60208 c 0,0 -2.39321,-2.83792 -1.97014,-4.08615 0.42306,-1.24823 2.99143,-9.37164 2.99143,-9.37164 l 0.3172,-27.49182 c 0,0 -6.09053,-7.419947 -6.24837,-8.085351 -0.15784,-0.665403 -1.54971,-6.361884 -1.74622,-9.427845 -0.19651,-3.06596 0.91171,-23.772843 0.91171,-23.772843"
       id="path4330" />
    <path
       style="fill:none;fill-rule:evenodd;stroke:#000000;stroke-width:1px;stroke-linecap:butt;stroke-linejoin:miter;stroke-opacity:1"
       d="m 533.78441,35.974611 0.62296,29.459153 -6.31301,9.489715 c 0,0 -1.89404,2.103207 -2.26803,2.178658 -0.37399,0.07545 -7.66522,-0.711857 -7.66522,-0.711857"
       id="path4332" />
    <path
       style="fill:none;fill-rule:evenodd;stroke:#000000;stroke-width:1px;stroke-linecap:butt;stroke-linejoin:miter;stroke-opacity:1"
       d="M 642.12387,62.693981 H 534.34943"
       id="path4334" />
    <path
       style="fill:none;fill-rule:evenodd;stroke:#000000;stroke-width:1px;stroke-linecap:butt;stroke-linejoin:miter;stroke-opacity:1"
       d="M 580.69664,38.464914 V 62.693981"
       id="path4336" />
    <path
       style="fill:none;fill-rule:evenodd;stroke:#000000;stroke-width:1px;stroke-linecap:butt;stroke-linejoin:miter;stroke-opacity:1"
       d="m 517.84391,103.8821 h 115.80835 c 0,0 7.02141,11.48748 7.54282,11.83443 0.52142,0.34694 5.92302,4.51683 5.92302,4.51683 l -1.00453,10.99397"
       id="path4338" />
    <path
       style="fill:none;fill-rule:evenodd;stroke:#000000;stroke-width:1px;stroke-linecap:butt;stroke-linejoin:miter;stroke-opacity:1"
       d="m 609.36417,103.8821 v 34.17568"
       id="path4340" />
    <rect
       style="color:#000000;overflow:visible;opacity:1;fill:#000000;stroke-width:2.19288;-inkscape-stroke:none;stop-color:#000000"
       id="rect4396"
       width="5.2194223"
       height="5.1705589"
       x="637.69678"
       y="99.763977" />
    <rect
       style="color:#000000;overflow:visible;opacity:1;fill:#000000;stroke-width:2.19288;-inkscape-stroke:none;stop-color:#000000"
       id="rect4398"
       width="5.2194223"
       height="5.1705589"
       x="637.38226"
       y="85.580032" />
    <rect
       style="color:#000000;overflow:visible;opacity:1;fill:#000000;stroke-width:2.19288;-inkscape-stroke:none;stop-color:#000000"
       id="rect4400"
       width="5.2194223"
       height="5.1705589"
       x="629.14948"
       y="85.580032" />
    <rect
       style="color:#000000;overflow:visible;opacity:1;fill:#000000;stroke-width:2.19288;-inkscape-stroke:none;stop-color:#000000"
       id="rect4402"
       width="5.2194223"
       height="5.1705589"
       x="620.91663"
       y="85.580032" />
    <rect
       style="color:#000000;overflow:visible;opacity:1;fill:#000000;stroke-width:2.19288;-inkscape-stroke:none;stop-color:#000000"
       id="rect4404"
       width="5.2194223"
       height="5.1705589"
       x="612.68384"
       y="85.580032" />
    <rect
       style="color:#000000;overflow:visible;opacity:1;fill:#000000;stroke-width:2.19288;-inkscape-stroke:none;stop-color:#000000"
       id="rect4406"
       width="5.2194223"
       height="5.1705589"
       x="598.85028"
       y="85.580032" />
    <rect
       style="color:#000000;overflow:visible;opacity:1;fill:#000000;stroke-width:2.19288;-inkscape-stroke:none;stop-color:#000000"
       id="rect4408"
       width="5.2194223"
       height="5.1705589"
       x="590.73108"
       y="85.580032" />
    <rect
       style="color:#000000;overflow:visible;opacity:1;fill:#000000;stroke-width:2.19288;-inkscape-stroke:none;stop-color:#000000"
       id="rect4410"
       width="5.2194223"
       height="5.1705589"
       x="568.5365"
       y="85.580032" />
    <rect
       style="color:#000000;overflow:visible;opacity:1;fill:#000000;stroke-width:2.19288;-inkscape-stroke:none;stop-color:#000000"
       id="rect4412"
       width="5.2194223"
       height="5.1705589"
       x="561.10681"
       y="85.580032" />
    <rect
       style="color:#000000;overflow:visible;opacity:1;fill:#000000;stroke-width:2.19288;-inkscape-stroke:none;stop-color:#000000"
       id="rect4414"
       width="5.2194223"
       height="5.1705589"
       x="553.67712"
       y="85.580032" />
    <rect
       style="color:#000000;overflow:visible;opacity:1;fill:#000000;stroke-width:2.19288;-inkscape-stroke:none;stop-color:#000000"
       id="rect4416"
       width="5.2194223"
       height="5.1705589"
       x="529.36719"
       y="85.580032" />
    <rect
       style="color:#000000;overflow:visible;opacity:1;fill:#000000;stroke-width:2.19288;-inkscape-stroke:none;stop-color:#000000"
       id="rect4418"
       width="5.2194223"
       height="5.1705589"
       x="521.33899"
       y="85.580032" />
    <rect
       style="color:#000000;overflow:visible;opacity:1;fill:#000000;stroke-width:2.19288;-inkscape-stroke:none;stop-color:#000000"
       id="rect4420"
       width="5.2194223"
       height="5.1705589"
       x="499.05145"
       y="72.787544" />
    <rect
       style="color:#000000;overflow:visible;opacity:1;fill:#000000;stroke-width:2.19288;-inkscape-stroke:none;stop-color:#000000"
       id="rect4422"
       width="5.2194223"
       height="5.1705589"
       x="538.24121"
       y="72.730904" />
    <rect
       style="color:#000000;overflow:visible;opacity:1;fill:#000000;stroke-width:2.19288;-inkscape-stroke:none;stop-color:#000000"
       id="rect4424"
       width="5.2194223"
       height="5.1705589"
       x="545.76312"
       y="72.730904" />
    <rect
       style="color:#000000;overflow:visible;opacity:1;fill:#000000;stroke-width:2.19288;-inkscape-stroke:none;stop-color:#000000"
       id="rect4426"
       width="5.2194223"
       height="5.1705589"
       x="553.28503"
       y="72.730904" />
    <rect
       style="color:#000000;overflow:visible;opacity:1;fill:#000000;stroke-width:2.19288;-inkscape-stroke:none;stop-color:#000000"
       id="rect4428"
       width="5.2194223"
       height="5.1705589"
       x="560.80695"
       y="72.730904" />
    <rect
       style="color:#000000;overflow:visible;opacity:1;fill:#000000;stroke-width:2.19288;-inkscape-stroke:none;stop-color:#000000"
       id="rect4430"
       width="5.2194223"
       height="5.1705589"
       x="568.32892"
       y="72.730904" />
    <rect
       style="color:#000000;overflow:visible;opacity:1;fill:#000000;stroke-width:2.19288;-inkscape-stroke:none;stop-color:#000000"
       id="rect4432"
       width="5.2194223"
       height="5.1705589"
       x="575.85083"
       y="72.730904" />
    <rect
       style="color:#000000;overflow:visible;opacity:1;fill:#000000;stroke-width:2.19288;-inkscape-stroke:none;stop-color:#000000"
       id="rect4434"
       width="5.2194223"
       height="5.1705589"
       x="583.37274"
       y="72.730904" />
    <rect
       style="color:#000000;overflow:visible;opacity:1;fill:#000000;stroke-width:2.19288;-inkscape-stroke:none;stop-color:#000000"
       id="rect4436"
       width="5.2194223"
       height="5.1705589"
       x="590.89465"
       y="72.730904" />
    <rect
       style="color:#000000;overflow:visible;opacity:1;fill:#000000;stroke-width:2.19288;-inkscape-stroke:none;stop-color:#000000"
       id="rect4438"
       width="5.2194223"
       height="5.1705589"
       x="606.09479"
       y="72.730904" />
    <rect
       style="color:#000000;overflow:visible;opacity:1;fill:#000000;stroke-width:2.19288;-inkscape-stroke:none;stop-color:#000000"
       id="rect4440"
       width="5.2194223"
       height="5.1705589"
       x="613.78589"
       y="72.730904" />
    <rect
       style="color:#000000;overflow:visible;opacity:1;fill:#000000;stroke-width:2.19288;-inkscape-stroke:none;stop-color:#000000"
       id="rect4442"
       width="5.2194223"
       height="5.1705589"
       x="621.47699"
       y="72.730904" />
    <rect
       style="color:#000000;overflow:visible;opacity:1;fill:#000000;stroke-width:2.19288;-inkscape-stroke:none;stop-color:#000000"
       id="rect4444"
       width="5.2194223"
       height="5.1705589"
       x="629.16809"
       y="72.730904" />
    <rect
       style="color:#000000;overflow:visible;opacity:1;fill:#000000;stroke-width:2.19288;-inkscape-stroke:none;stop-color:#000000"
       id="rect4446"
       width="5.2194223"
       height="5.1705589"
       x="636.85919"
       y="72.730904" />
    <rect
       style="color:#000000;overflow:visible;opacity:1;fill:#000000;stroke-width:2.19288;-inkscape-stroke:none;stop-color:#000000"
       id="rect4448"
       width="5.2194223"
       height="5.1705589"
       x="629.89807"
       y="125.1825" />
    <rect
       style="color:#000000;overflow:visible;opacity:1;fill:#000000;stroke-width:2.19288;-inkscape-stroke:none;stop-color:#000000"
       id="rect4450"
       width="5.2194223"
       height="5.1705589"
       x="614.46588"
       y="125.1825" />
    <rect
       style="color:#000000;overflow:visible;opacity:1;fill:#000000;stroke-width:2.19288;-inkscape-stroke:none;stop-color:#000000"
       id="rect4452"
       width="5.2194223"
       height="5.1705589"
       x="613.83215"
       y="111.99899" />
    <rect
       style="color:#000000;overflow:visible;opacity:1;fill:#000000;stroke-width:2.19288;-inkscape-stroke:none;stop-color:#000000"
       id="rect4454"
       width="5.2194223"
       height="5.1705589"
       x="575.45685"
       y="112.55096" />
    <rect
       style="color:#000000;overflow:visible;opacity:1;fill:#000000;stroke-width:2.19288;-inkscape-stroke:none;stop-color:#000000"
       id="rect4456"
       width="5.2194223"
       height="5.1705589"
       x="536.36481"
       y="177.50871" />
    <rect
       style="color:#000000;overflow:visible;opacity:1;fill:#000000;stroke-width:2.19288;-inkscape-stroke:none;stop-color:#000000"
       id="rect4458"
       width="5.2194223"
       height="5.1705589"
       x="522.23773"
       y="47.510498" />
    <rect
       style="color:#000000;overflow:visible;opacity:1;fill:#000000;stroke-width:2.19288;-inkscape-stroke:none;stop-color:#000000"
       id="rect4460"
       width="5.2194223"
       height="5.1705589"
       x="545.26733"
       y="47.510498" />
    <rect
       style="color:#000000;overflow:visible;opacity:1;fill:#000000;stroke-width:2.19288;-inkscape-stroke:none;stop-color:#000000"
       id="rect4462"
       width="5.2194223"
       height="5.1705589"
       x="553.16052"
       y="47.510498" />
    <rect
       style="color:#000000;overflow:visible;opacity:1;fill:#000000;stroke-width:2.19288;-inkscape-stroke:none;stop-color:#000000"
       id="rect4464"
       width="5.2194223"
       height="5.1705589"
       x="561.05371"
       y="47.510498" />
    <rect
       style="color:#000000;overflow:visible;opacity:1;fill:#000000;stroke-width:2.19288;-inkscape-stroke:none;stop-color:#000000"
       id="rect4466"
       width="5.2194223"
       height="5.1705589"
       x="585.98029"
       y="47.510498" />
    <rect
       style="color:#000000;overflow:visible;opacity:1;fill:#000000;stroke-width:2.19288;-inkscape-stroke:none;stop-color:#000000"
       id="rect4468"
       width="5.2194223"
       height="5.1705589"
       x="593.06232"
       y="47.510498" />
    <rect
       style="color:#000000;overflow:visible;opacity:1;fill:#000000;stroke-width:2.19288;-inkscape-stroke:none;stop-color:#000000"
       id="rect4470"
       width="5.2194223"
       height="5.1705589"
       x="600.14441"
       y="47.510498" />
    <rect
       style="color:#000000;overflow:visible;opacity:1;fill:#000000;stroke-width:2.19288;-inkscape-stroke:none;stop-color:#000000"
       id="rect4472"
       width="5.2194223"
       height="5.1705589"
       x="607.22644"
       y="47.510498" />
    <rect
       style="color:#000000;overflow:visible;opacity:1;fill:#000000;stroke-width:2.19288;-inkscape-stroke:none;stop-color:#000000"
       id="rect4474"
       width="5.2194223"
       height="5.1705589"
       x="620.65918"
       y="47.510498" />
    <rect
       style="color:#000000;overflow:visible;opacity:1;fill:#000000;stroke-width:2.19288;-inkscape-stroke:none;stop-color:#000000"
       id="rect4476"
       width="5.2194223"
       height="5.1705589"
       x="627.9505"
       y="47.510498" />
    <rect
       style="color:#000000;overflow:visible;opacity:1;fill:#000000;stroke-width:2.19288;-inkscape-stroke:none;stop-color:#000000"
       id="rect4342"
       width="5.2194223"
       height="5.1705589"
       x="627.9505"
       y="47.510498" />
    <text
       xml:space="preserve"
       style="font-size:29.3333px;line-height:125%;font-family:'Linux Libertine O';-inkscape-font-specification:'Linux Libertine O, Normal';font-variant-ligatures:none;letter-spacing:0px;word-spacing:0px;writing-mode:lr-tb;fill:#000000;stroke:none;stroke-width:1px;stroke-linecap:butt;stroke-linejoin:miter;stroke-opacity:1"
       x="37.053204"
       y="426.7601"
       id="text4480"><tspan
         sodipodi:role="line"
         id="tspan4478"
         x="37.053204"
         y="426.7601">dropped egg + varr (Qu. H35)</tspan></text>
  </g>
  <g
     inkscape:groupmode="layer"
     id="layer6"
     inkscape:label="paus"
     transform="translate(-28.549859,-23.225379)" />
</svg>
